<svg width="252" height="47" viewBox="0 0 252 47" fill="none" xmlns="http://www.w3.org/2000/svg">
<path d="M194.708 17.08H184.444V31.87H180.925V17.08H170.639V14.4287H194.708V17.08Z" fill="white"/>
<path d="M209.291 14.1523C201.218 14.1523 194.823 17.9453 194.823 23.1318C194.823 28.3183 201.363 32.1085 209.318 32.1085C217.274 32.1085 223.782 28.356 223.782 23.1318C223.782 17.9077 217.357 14.1523 209.291 14.1523ZM209.314 29.3001C203.207 29.3001 198.432 26.6288 198.432 23.1314C198.432 19.626 203.207 16.9649 209.296 16.9649C215.371 16.9649 220.174 19.5572 220.174 23.1314C220.174 26.7055 215.424 29.3006 209.314 29.3006V29.3001Z" fill="white"/>
<path d="M227.18 14.3613V31.8682H230.698V24.8825H240.325L247.247 31.8682H251.428L244.498 24.8115C247.611 24.8152 250.915 22.4092 250.915 19.6259C250.915 16.8426 248.014 14.3613 243.421 14.3613H227.18ZM230.695 17.0717H243.927C245.398 17.0717 247.334 18.021 247.334 19.664C247.334 21.6476 245.346 22.2763 243.617 22.2763H230.698L230.695 17.0721V17.0717Z" fill="white"/>
<path d="M25.7608 31.87H22.4469V18.3732L12.685 29.688L3.32039 18.402V31.87H0V14.4287H3.8528L12.7134 24.9564L21.6636 14.4287H25.7608V31.87Z" fill="white"/>
<path d="M119.416 17.08H101.824V21.6973H112.747V24.2901H101.824V31.87H98.3105V14.4287H119.422L119.416 17.08Z" fill="white"/>
<path d="M156.313 14.1592C148.276 14.1592 141.939 17.9694 141.939 23.1322C141.939 28.3019 148.32 32.1177 156.313 32.1177C161.652 32.1177 166.235 30.4105 168.776 27.8243L166.037 25.9656C164.305 27.9971 160.605 29.3037 156.313 29.3037C150.246 29.3037 145.499 26.6821 145.499 23.1308C145.499 19.5878 150.304 16.9643 156.313 16.9643C160.047 16.9643 163.286 18.0233 165.178 19.4948L167.903 17.6455C165.291 15.502 161.108 14.1592 156.313 14.1592Z" fill="white"/>
<path d="M51.9835 31.87H55.9204L43.5991 14.4287H40.7442L28.4258 31.87H32.3562L36.2759 26.3207H48.0666L51.9835 31.87ZM38.0836 23.7441L42.1719 17.9438L46.2561 23.7441H38.0836Z" fill="white"/>
<path d="M137.885 31.87H141.813L129.494 14.4287H126.634L114.316 31.87H118.251L122.168 26.3207H133.964L137.885 31.87ZM123.979 23.7441L128.062 17.9438L132.147 23.7441H123.979Z" fill="white"/>
<path d="M88.3093 34.1913C88.0882 33.9901 87.8591 33.781 87.6454 33.571C87.6454 33.571 86.484 32.453 85.9265 31.7811C85.7648 31.5762 83.1993 28.5071 83.1993 28.5071L81.407 26.3697C80.6172 25.4246 79.9152 24.5529 79.2587 23.7058C78.7082 22.9912 77.9913 22.4475 78.1972 21.6195C78.3909 20.7999 81.3675 16.9981 82.7882 15.2695C82.7882 15.2695 83.9445 13.8835 85.598 11.9073V11.9254C88.6684 8.26949 93.488 2.58581 95.9959 0C95.9959 0 93.3733 0.156124 90.5979 3.09415C89.2315 4.5462 76.8276 17.1825 76.3955 17.5594C75.7507 18.1262 75.2155 17.9436 74.7425 17.4901C74.3736 17.1351 73.1481 15.5302 72.466 14.4796C71.5717 13.0977 70.6054 11.7279 69.9015 10.2424C69.8634 10.1532 69.8216 10.0886 69.7928 10.0282L69.7905 10.0194L69.7868 10.0101L69.7352 9.91716C69.535 9.50873 69.4444 9.34145 69.3798 9.04918C69.3189 8.78897 69.2595 8.39262 69.1387 7.5962L69.101 7.31276L69.0917 7.3044V7.29046C68.9459 5.48434 68.4961 4.14288 67.7589 3.29674C67.1108 2.53609 66.3651 2.38647 66.1128 2.35999C66.1037 2.35909 66.0945 2.35909 66.0854 2.35999C65.9815 2.34779 65.8768 2.34453 65.7723 2.35023C64.7967 2.48498 63.9781 3.0816 63.3314 4.13637C63.2128 4.35668 63.1111 4.58564 63.0271 4.82127C62.8553 5.291 62.7344 5.7778 62.6665 6.27332C62.5239 7.4266 62.7395 8.41679 63.3058 9.21925C63.6361 9.62814 64.2127 10.1532 64.7739 10.6653C65.1651 11.0254 65.5321 11.3557 65.8137 11.6434C67.075 12.9444 68.0525 14.4648 69.0657 15.9442C69.8295 17.0673 70.7015 18.1281 71.4597 19.2628C71.6289 19.5365 71.7896 19.7841 71.9202 20.0118C71.9407 20.0381 71.9575 20.067 71.9703 20.0978C72.5278 21.0178 72.7211 21.6311 71.9838 22.7073C71.6707 23.1719 70.2871 24.8944 69.554 25.8307C68.4409 27.2575 67.3393 28.6876 66.2494 30.1209C64.2053 32.7996 62.2131 35.523 60.4533 38.3736C59.5139 39.8875 58.1712 41.6564 58.2632 43.5271C58.4175 46.7333 62.1053 46.901 64.1602 45.311C65.0159 44.6521 65.4861 43.9988 64.9082 43.5606C63.8201 42.7382 64.0282 41.4757 65.724 38.2998C66.3405 37.12 70.8075 31.0943 74.3806 26.3432C74.3806 26.3432 74.7783 25.8121 74.7695 25.8261C74.9279 25.6146 75.195 25.3261 75.6057 25.3261C76.0006 25.3219 76.2942 25.8261 76.5548 26.1625C78.5001 28.7344 79.2787 29.8161 80.9809 32.4916C81.4729 33.2615 82.1554 34.5988 82.5935 35.4867C82.588 35.4845 82.5827 35.4817 82.5777 35.4784L82.5856 35.4844C83.1046 36.4042 83.5407 37.3682 83.8888 38.3653C84.2326 39.3118 84.6112 40.3782 85.5762 41.1351C86.0094 41.4634 86.5255 41.6645 87.0666 41.7159C87.0796 41.7159 87.0861 41.7159 87.0944 41.7159C88.8505 41.8655 90.3684 40.5078 90.5444 38.632C90.5591 38.4999 90.5652 38.3671 90.5626 38.2342C90.5365 37.1655 90.1161 36.1433 89.2798 35.1341C89.0787 34.9054 88.7061 34.5588 88.3093 34.1913Z" fill="white"/>
</svg>
