<svg width="55" height="56" viewBox="0 0 55 56" fill="none" xmlns="http://www.w3.org/2000/svg">
<rect x="10.1636" y="11.0288" width="34.4008" height="33.619" fill="white"/>
<rect x="0.390919" y="1.25615" width="53.9468" height="53.9468" stroke="white" stroke-width="0.781837"/>
<path d="M27.3641 25.1802C26.6289 25.1802 25.9238 25.4603 25.404 25.9588C24.8842 26.4573 24.5921 27.1335 24.5921 27.8385C24.5921 28.5435 24.8842 29.2196 25.404 29.7182C25.9238 30.2167 26.6289 30.4967 27.3641 30.4967C28.0992 30.4967 28.8043 30.2167 29.3242 29.7182C29.844 29.2196 30.136 28.5435 30.136 27.8385C30.136 27.1335 29.844 26.4573 29.3242 25.9588C28.8043 25.4603 28.0992 25.1802 27.3641 25.1802ZM27.3641 32.2689C26.1388 32.2689 24.9637 31.8021 24.0973 30.9713C23.2309 30.1404 22.7441 29.0135 22.7441 27.8385C22.7441 26.6635 23.2309 25.5366 24.0973 24.7057C24.9637 23.8749 26.1388 23.4081 27.3641 23.4081C28.5894 23.4081 29.7645 23.8749 30.6309 24.7057C31.4973 25.5366 31.984 26.6635 31.984 27.8385C31.984 29.0135 31.4973 30.1404 30.6309 30.9713C29.7645 31.8021 28.5894 32.2689 27.3641 32.2689ZM27.3641 21.1929C22.7441 21.1929 18.7987 23.9486 17.2002 27.8385C18.7987 31.7284 22.7441 34.4841 27.3641 34.4841C31.984 34.4841 35.9295 31.7284 37.528 27.8385C35.9295 23.9486 31.984 21.1929 27.3641 21.1929Z" fill="black"/>
</svg>
