<svg width="27" height="27" viewBox="0 0 27 27" fill="none" xmlns="http://www.w3.org/2000/svg">
<path d="M13.5 2.63077C17.1046 2.63077 17.5315 2.64397 18.9551 2.70643C20.2713 2.76432 20.9862 2.97608 21.4619 3.15412C22.092 3.38995 22.5417 3.67168 23.0141 4.12658C23.4866 4.58148 23.7791 5.01454 24.024 5.62128C24.2089 6.07942 24.4288 6.76781 24.4889 8.03521C24.5538 9.4061 24.5675 9.81723 24.5675 13.2883C24.5675 16.7595 24.5538 17.1707 24.4889 18.5414C24.4288 19.8089 24.2089 20.4972 24.024 20.9554C23.7791 21.5621 23.4865 21.9953 23.0141 22.4502C22.5417 22.9051 22.092 23.1868 21.4619 23.4225C20.9862 23.6006 20.2713 23.8124 18.9551 23.8702C17.5318 23.9328 17.1048 23.946 13.5 23.946C9.89508 23.946 9.46814 23.9328 8.04484 23.8702C6.72859 23.8123 6.01383 23.6006 5.53806 23.4225C4.90799 23.1868 4.45816 22.9051 3.98577 22.4502C3.51338 21.9952 3.2208 21.5621 2.97601 20.9554C2.79112 20.4973 2.57112 19.8089 2.51111 18.5414C2.44614 17.1707 2.43243 16.7595 2.43243 13.2883C2.43243 9.81723 2.44614 9.4061 2.51111 8.03531C2.57122 6.76781 2.79112 6.07942 2.97601 5.62128C3.2208 5.01454 3.51338 4.58148 3.98577 4.12658C4.45827 3.67158 4.90799 3.38995 5.53806 3.15412C6.01372 2.97608 6.72859 2.76432 8.04484 2.70643C9.46835 2.64397 9.89529 2.63077 13.5 2.63077ZM13.5 0.28833C9.83359 0.28833 9.37385 0.30326 7.93399 0.366533C6.49698 0.429705 5.51559 0.649486 4.65697 0.97083C3.76914 1.30304 3.0163 1.74758 2.26579 2.4703C1.51527 3.19302 1.05374 3.91797 0.70875 4.77282C0.374941 5.59974 0.146812 6.54478 0.0812109 7.92847C0.0155039 9.315 0 9.75771 0 13.2883C0 16.8189 0.0155039 17.2617 0.0812109 18.6482C0.146812 20.032 0.374941 20.977 0.70875 21.8038C1.05363 22.6587 1.51527 23.3837 2.26579 24.1065C3.0163 24.8292 3.76914 25.2736 4.65697 25.6058C5.5157 25.9273 6.49698 26.147 7.93389 26.2101C9.37385 26.2734 9.83359 26.2883 13.5 26.2883C17.1664 26.2883 17.6261 26.2734 19.066 26.2101C20.5029 26.147 21.4843 25.9273 22.3429 25.6058C23.2308 25.2737 23.9836 24.8292 24.7341 24.1065C25.4846 23.3837 25.9463 22.6588 26.2913 21.8038C26.625 20.9769 26.8532 20.032 26.9188 18.6483C26.9845 17.2617 27 16.8189 27 13.2883C27 9.75771 26.9845 9.315 26.9188 7.92847C26.8532 6.54478 26.625 5.59974 26.2913 4.77292C25.9463 3.91797 25.4846 3.19302 24.7341 2.4703C23.9836 1.74758 23.2308 1.30294 22.343 0.97083C21.4843 0.649486 20.5029 0.429705 19.066 0.366533C17.6261 0.30326 17.1664 0.28833 13.5 0.28833ZM13.5 6.61263C9.67127 6.61263 6.56754 9.60161 6.56754 13.2883C6.56754 16.9753 9.67127 19.964 13.5 19.964C17.3286 19.964 20.4325 16.9753 20.4325 13.2883C20.4325 9.60151 17.3286 6.61263 13.5 6.61263ZM13.5 17.6217C11.0147 17.6217 8.99996 15.6815 8.99996 13.2883C8.99996 10.8951 11.0147 8.95496 13.5 8.95496C15.9853 8.95496 18 10.8951 18 13.2883C18 15.6815 15.9853 17.6217 13.5 17.6217ZM22.3263 6.34887C22.3263 7.21053 21.6011 7.90887 20.7063 7.90887C19.8116 7.90887 19.0863 7.21053 19.0863 6.34887C19.0863 5.48731 19.8116 4.78887 20.7063 4.78887C21.6011 4.78887 22.3263 5.48731 22.3263 6.34887Z" fill="#010101"/>
</svg>
