<svg width="55" height="56" viewBox="0 0 55 56" fill="none" xmlns="http://www.w3.org/2000/svg">
<rect x="10.1636" y="11.0288" width="34.4008" height="33.619" fill="white"/>
<rect x="0.390919" y="1.25615" width="53.9468" height="53.9468" stroke="white" stroke-width="0.781837"/>
<path d="M31.2294 34.0947V36.2838H17V34.0947C17 34.0947 17 29.7164 24.1147 29.7164C31.2294 29.7164 31.2294 34.0947 31.2294 34.0947ZM27.6721 23.6963C27.6721 22.9386 27.4634 22.1979 27.0726 21.5679C26.6817 20.9379 26.1261 20.4469 25.4761 20.1569C24.826 19.8669 24.1108 19.7911 23.4207 19.9389C22.7307 20.0867 22.0968 20.4516 21.5993 20.9873C21.1018 21.5231 20.763 22.2057 20.6257 22.9489C20.4885 23.692 20.5589 24.4623 20.8281 25.1623C21.0974 25.8623 21.5534 26.4607 22.1384 26.8816C22.7234 27.3026 23.4111 27.5273 24.1147 27.5273C25.0582 27.5273 25.963 27.1236 26.6302 26.4052C27.2973 25.6867 27.6721 24.7123 27.6721 23.6963ZM31.1685 29.7164C31.7933 30.2371 32.3045 30.899 32.6663 31.6554C33.028 32.4119 33.2314 33.2445 33.2622 34.0947V36.2838H37.3278V34.0947C37.3278 34.0947 37.3278 30.1214 31.1685 29.7164ZM30.213 19.8653C29.5135 19.8618 28.8295 20.087 28.2514 20.5111C28.8688 21.4401 29.2008 22.5538 29.2008 23.6963C29.2008 24.8387 28.8688 25.9525 28.2514 26.8815C28.8295 27.3056 29.5135 27.5308 30.213 27.5273C31.1565 27.5273 32.0613 27.1236 32.7285 26.4052C33.3956 25.6867 33.7704 24.7123 33.7704 23.6963C33.7704 22.6802 33.3956 21.7058 32.7285 20.9873C32.0613 20.2689 31.1565 19.8653 30.213 19.8653Z" fill="black"/>
</svg>
