<svg width="28" height="31" viewBox="0 0 28 31" fill="none" xmlns="http://www.w3.org/2000/svg">
<path d="M14.3892 0C16.0647 0 17.8387 0 19.5141 0C19.6127 1.89072 20.3026 3.87598 21.7809 5.29403C23.2593 6.71207 25.329 7.37382 27.3986 7.5629V12.6679C25.5261 12.5733 23.5549 12.1952 21.8795 11.4389C21.091 11.1553 20.4011 10.6826 19.7113 10.3044C19.7113 13.9914 19.7113 17.6783 19.7113 21.3652C19.6127 23.1614 19.0214 24.863 17.9372 26.3756C16.2618 28.8335 13.2065 30.3461 10.1513 30.4407C8.27873 30.5352 6.40616 30.0625 4.82926 29.1172C2.16824 27.4155 0.295669 24.674 0 21.7433C0 21.0816 0 20.5144 0 19.8526C0.197113 17.4892 1.47834 15.1258 3.35091 13.6132C5.51915 11.817 8.5744 10.9662 11.4325 11.4389C11.4325 13.3296 11.334 15.1258 11.334 17.0165C10.0527 16.6384 8.47584 16.7329 7.39172 17.4892C6.60327 17.9619 5.91338 18.8127 5.61771 19.6635C5.32204 20.3253 5.42059 20.987 5.42059 21.6488C5.71626 23.7286 7.78595 25.4302 10.0527 25.2412C11.5311 25.2412 12.9109 24.3903 13.6993 23.2559C13.995 22.8778 14.1921 22.4051 14.1921 21.9324C14.2907 19.6635 14.2907 17.3947 14.2907 15.2203C14.3892 10.1154 14.3892 5.10496 14.3892 0Z" fill="#010101"/>
</svg>
