<svg width="28" height="20" viewBox="0 0 28 20" fill="none" xmlns="http://www.w3.org/2000/svg">
<path fill-rule="evenodd" clip-rule="evenodd" d="M25.627 2.02898C26.0481 2.44925 26.3517 2.97219 26.5076 3.54582C27.0821 5.66345 27.0991 10.0555 27.0991 10.0555C27.0991 10.0555 27.0991 14.4649 26.5253 16.5656C26.3694 17.1392 26.0659 17.6622 25.6448 18.0824C25.2237 18.5027 24.6997 18.8057 24.125 18.9613C22.0201 19.5343 13.5495 19.5343 13.5495 19.5343C13.5495 19.5343 5.07896 19.5343 2.97455 18.9609C2.39979 18.8053 1.87583 18.5023 1.45473 18.082C1.03364 17.6617 0.730057 17.1388 0.574162 16.5652C0 14.4475 0 10.0555 0 10.0555C0 10.0555 0 5.66345 0.556801 3.56272C0.712696 2.98909 1.01628 2.46616 1.43737 2.04588C1.85847 1.6256 2.38243 1.32262 2.95719 1.16703C5.06202 0.593564 13.5326 0.57666 13.5326 0.57666C13.5326 0.57666 22.0028 0.57666 24.1072 1.15012C24.6819 1.30571 25.2059 1.6087 25.627 2.02898ZM17.8626 10.0556L10.8358 14.1176L10.8354 5.99361L17.8626 10.0556Z" fill="#010101"/>
</svg>
