<svg width="98" height="20" viewBox="0 0 98 20" fill="none" xmlns="http://www.w3.org/2000/svg">
<path d="M27.2349 1.41728L27.1303 1.18801H26.8783H25.9053H25.2959L25.5487 1.74247L33.5481 19.289L33.6526 19.5183H33.9047H33.9949H34.2469L34.3515 19.289L42.3509 1.74247L42.6036 1.18801H41.9943H41.0251H40.7729L40.6684 1.41749L35.7954 12.1183L35.7939 12.1218L33.9531 16.2698L32.1173 12.1221L32.1173 12.1221L32.1155 12.1181L27.2349 1.41728ZM81.3116 18.6394V19.0313H81.7035H82.5998H82.9917V18.6394L82.9917 10.1586L82.9916 10.1558L82.9509 4.39382L96.5716 19.3899L96.6882 19.5183H96.8617H96.9519H97.3438V19.1264V1.5799V1.18801H96.9519H96.0556H95.6637V1.5799L95.6637 10.1586L95.6637 10.1613L95.7044 15.9197L82.0818 0.927134L81.9652 0.798785H81.7918H81.7035H81.3116V1.19067V18.6394ZM13.3585 12.6022L5.57524 12.5955L7.62446 8.09775L7.62449 8.09776L7.62632 8.09362L9.46225 3.93745L11.3289 8.10599L11.3293 8.10706L13.3585 12.6022ZM2.75019 18.8012L4.87474 14.1359L14.0498 14.1322L16.1799 18.8015L16.2845 19.0307H16.5365H17.5066H18.1173L17.8629 18.4756L9.8681 1.02801L9.76333 0.799372H9.51183H9.41414H9.16264L9.05787 1.02801L1.06268 18.4756L0.808291 19.0307H1.41895H2.39354H2.64569L2.75019 18.8012ZM52.7232 10.1586C52.7232 5.89801 56.1645 2.45549 60.2191 2.45549C64.2769 2.45549 67.7147 5.89789 67.7147 10.1586C67.7147 14.4227 64.277 17.8624 60.2191 17.8624C56.1643 17.8624 52.7232 14.4226 52.7232 10.1586ZM60.2189 0.798785C55.2585 0.798785 51.0102 4.99214 51.0102 10.1586C51.0102 15.3257 55.2585 19.5193 60.2189 19.5193C65.1829 19.5193 69.4332 15.3259 69.4332 10.1586C69.4332 4.99193 65.1828 0.798785 60.2189 0.798785Z" fill="white" stroke="white" stroke-width="0.783778"/>
</svg>
