<svg width="97" height="19" viewBox="0 0 97 19" fill="none" xmlns="http://www.w3.org/2000/svg">
<path d="M9.54858 2.85255L10.8794 5.83669H8.31472L9.54858 2.85255ZM9.9841 1.04018H9.14941L5.60501 9.34562H6.81497L7.8553 6.9031H11.3637L12.4646 9.34562H13.6746L9.9841 1.04018ZM18.4145 2.10828H19.1738C20.3194 2.10828 20.7779 2.58089 20.79 3.35714C20.8021 4.04856 20.4403 4.70261 19.1738 4.70261H18.4145V2.10828ZM17.2372 1.08495V9.34562H18.4145V5.76869H18.9089C19.5117 5.76869 20.0061 5.96224 21.0919 7.65477L22.179 9.34562H23.5959C23.0268 8.56062 22.8208 8.28257 22.4694 7.71435C21.8407 6.68699 21.382 5.92589 20.6328 5.42971C21.5146 5.07862 22.0097 4.36364 22.0097 3.40528C22.0097 1.97431 20.971 1.08462 19.3067 1.08462L17.2372 1.08495ZM24.6578 5.21427C24.6578 3.39888 26.0246 2.06687 27.8623 2.06687C29.7124 2.06687 31.0789 3.39888 31.0789 5.21427C31.0789 7.01822 29.7124 8.36168 27.8623 8.36168C26.0243 8.36134 24.6578 7.01822 24.6578 5.21427ZM23.4378 5.21427C23.4378 7.45415 25.1415 9.45165 27.8377 9.45165C30.6309 9.45165 32.2983 7.44236 32.2983 5.21427C32.2983 2.91448 30.5824 0.976899 27.8616 0.976899C25.1899 0.976899 23.4378 2.92627 23.4378 5.21427ZM40.7815 2.92627C39.7647 2.33314 38.893 2.06687 37.9364 2.06687C36.048 2.06687 34.6435 3.41066 34.6435 5.22639C34.6435 7.07881 35.9992 8.36134 37.9849 8.36134C38.9175 8.36134 39.9343 8.03448 40.8666 7.42957V8.72489C40.0555 9.14903 39.1717 9.45131 37.8762 9.45131C34.7771 9.45131 33.4237 7.0667 33.4237 5.33512C33.4237 2.81754 35.322 0.976562 37.9489 0.976562C38.7964 0.976562 39.656 1.18224 40.7818 1.65519L40.7815 2.92627ZM49.3145 9.34562H48.1375V5.74748H43.5147V9.34562H42.3374V1.0826H43.5147V4.68073H48.1375V1.0826H49.3145V9.34562ZM55.8392 2.15103H52.3402V4.63832H55.718V5.70473H52.3402V8.27752H55.9479V9.34393H51.1633V1.08495H55.8392V2.15103ZM56.7887 6.11608V7.24645H59.7205V6.11608H56.7887ZM62.3252 2.15103H63.7206C64.801 2.15103 65.1288 2.80374 65.1288 3.40864C65.1288 4.23067 64.5587 4.70261 63.6722 4.70261H62.3252V2.15103ZM61.1476 1.08495V9.34562H62.3249V5.76869H63.5631C65.4792 5.76869 66.3482 4.75142 66.3482 3.45745C66.3482 2.15103 65.5273 1.08495 63.7203 1.08495H61.1476ZM68.2549 5.21427C68.2549 3.39888 69.6213 2.06687 71.4593 2.06687C73.3098 2.06687 74.6759 3.39888 74.6759 5.21427C74.6759 7.01822 73.3098 8.36168 71.4593 8.36168C69.621 8.36134 68.2549 7.01822 68.2549 5.21427ZM67.0348 5.21427C67.0348 7.45415 68.7389 9.45165 71.4348 9.45165C74.2283 9.45165 75.8956 7.44236 75.8956 5.21427C75.8956 2.91448 74.1798 0.976899 71.459 0.976899C68.7867 0.976899 67.0348 2.92627 67.0348 5.21427ZM81.2525 2.90371C80.5568 2.23821 79.8762 2.04398 79.3162 2.04398C78.5502 2.04398 78.0022 2.44389 78.0022 3.02422C78.0022 4.60937 81.5763 4.58513 81.5763 7.21111C81.5763 8.50642 80.6049 9.45098 79.2681 9.45098C78.3671 9.45098 77.6421 9.20895 76.9585 8.68752V7.18653C77.5583 7.9611 78.3186 8.38457 79.1338 8.38457C80.0593 8.38457 80.4848 7.80389 80.4848 7.34374C80.4848 5.63842 76.9107 5.44452 76.9107 3.1821C76.9107 1.83898 77.8949 0.977908 79.4141 0.977908C80.0472 0.977908 80.6776 1.17147 81.2531 1.55993V2.90371H81.2525ZM85.9917 2.85255L87.3222 5.83669H84.7578L85.9917 2.85255ZM86.4272 1.04018H85.5925L82.0478 9.34562H83.2578L84.2981 6.9031H87.8068L88.9074 9.34562H90.1173L86.4272 1.04018ZM1.18216 16.5712H2.98045V17.2134H0.614706V12.2365H1.1825L1.18216 16.5712ZM5.14626 13.3002L5.78844 15.1049H4.5502L5.14626 13.3002ZM5.35628 12.2042H4.95341L3.24196 17.2134H3.82591L4.32874 15.7475H6.02202L6.55312 17.2134H7.13707L5.35628 12.2042ZM8.3302 12.8788H8.85996C9.39006 12.8788 9.56103 13.1996 9.56103 13.5719C9.56103 14.1044 9.28404 14.366 8.71288 14.366H8.32987L8.3302 12.8788ZM7.76275 17.2134H9.12551C10.1248 17.2134 10.492 16.4981 10.492 15.8855C10.492 15.2136 10.1308 14.7245 9.53478 14.5858C9.95717 14.3596 10.1497 14.0243 10.1497 13.5062C10.1497 12.8791 9.78216 12.2368 8.9192 12.2368H7.76275V17.2134ZM8.3302 15.0093H9.02488C9.62263 15.0093 9.90299 15.3301 9.90299 15.7831C9.90299 16.1551 9.72191 16.5715 9.04945 16.5715H8.32987L8.3302 15.0093ZM11.6437 14.7251C11.6437 13.6291 12.3041 12.8249 13.1926 12.8249C14.0869 12.8249 14.7469 13.6291 14.7469 14.7251C14.7469 15.8138 14.0869 16.6254 13.1926 16.6254C12.3037 16.625 11.6437 15.8138 11.6437 14.7251ZM11.0551 14.7251C11.0551 16.077 11.8776 17.2781 13.1805 17.2781C14.5308 17.2781 15.3352 16.0696 15.3352 14.7251C15.3352 13.3373 14.5072 12.1722 13.1923 12.1722C11.9005 12.1722 11.0551 13.3443 11.0551 14.7251ZM16.9198 12.8468H17.2897C17.8467 12.8468 18.0698 13.1316 18.0759 13.5981C18.0816 14.0149 17.9056 14.4094 17.2897 14.4094H16.9198V12.8468ZM16.353 12.2365V17.2134H16.9201V15.051H17.1607C17.4542 15.051 17.6945 15.1681 18.2216 16.1911L18.7467 17.2134H19.4296C19.1553 16.7388 19.056 16.5705 18.8863 16.2271C18.5831 15.6057 18.3616 15.1463 17.9998 14.847C18.4256 14.6353 18.6645 14.2047 18.6645 13.6281C18.6645 12.766 18.1637 12.2362 17.3543 12.2362L16.353 12.2365ZM21.5738 13.3002L22.216 15.1049H20.9778L21.5738 13.3002ZM21.7839 12.2042H21.381L19.6699 17.2134H20.2542L20.756 15.7475H22.4496L22.981 17.2134H23.565L21.7839 12.2042ZM26.7832 12.8788H25.405V17.2134H24.8375V12.8788H23.459V12.2365H26.7829L26.7832 12.8788ZM27.587 14.7251C27.587 13.6291 28.2473 12.8249 29.1359 12.8249C30.0301 12.8249 30.6905 13.6291 30.6905 14.7251C30.6905 15.8138 30.0301 16.6254 29.1359 16.6254C28.2473 16.625 27.587 15.8138 27.587 14.7251ZM26.9983 14.7251C26.9983 16.077 27.8205 17.2781 29.1241 17.2781C30.4741 17.2781 31.2785 16.0696 31.2785 14.7251C31.2785 13.3373 30.4505 12.1722 29.1355 12.1722C27.8441 12.1722 26.9983 13.3443 26.9983 14.7251ZM32.2316 12.2365V17.2134H32.7991V12.2365H32.2316ZM34.4227 12.8468H34.7922C35.3496 12.8468 35.5727 13.1316 35.5784 13.5981C35.5845 14.0149 35.4085 14.4094 34.7922 14.4094H34.4227V12.8468ZM33.8556 12.2365V17.2134H34.423V15.051H34.664C34.9568 15.051 35.1978 15.1681 35.7245 16.1911L36.2492 17.2134H36.9325C36.6582 16.7388 36.5589 16.5705 36.3892 16.2271C36.086 15.6057 35.8642 15.1463 35.5027 14.847C35.9285 14.6353 36.1678 14.2047 36.1678 13.6281C36.1678 12.766 35.6663 12.2362 34.8572 12.2362L33.8556 12.2365ZM39.8845 12.8788H38.1966V14.3771H39.8259V15.0194H38.1966V16.5708H39.9367V17.2131H37.6295V12.2362H39.8845V12.8788ZM42.7665 12.8788H43.4427C43.9667 12.8788 44.1253 13.2733 44.1253 13.6382C44.1253 14.1354 43.8489 14.4198 43.4191 14.4198H42.7665V12.8788ZM42.1994 12.2365V17.2134H42.7669V15.0621H43.3666C44.2949 15.0621 44.7143 14.4495 44.7143 13.6675C44.7143 12.8784 44.3178 12.2362 43.443 12.2362L42.1994 12.2365ZM48.9019 17.2134H48.3347V15.0406H46.0979V17.2134H45.5304V12.2365H46.0979V14.3983H48.3347V12.2365H48.9019V17.2134ZM51.4052 13.3002L52.0474 15.1049H50.8095L51.4052 13.3002ZM51.6156 12.2042H51.2127L49.5013 17.2134H50.0856L50.5877 15.7475H52.2813L52.8128 17.2134H53.3967L51.6156 12.2042ZM54.6642 12.8468H55.0345C55.5918 12.8468 55.8146 13.1316 55.8204 13.5981C55.8264 14.0149 55.6504 14.4094 55.0345 14.4094H54.6642V12.8468ZM54.0975 12.2365V17.2134H54.6642V15.051H54.9049C55.1987 15.051 55.439 15.1681 55.9661 16.1911L56.4905 17.2134H57.174C56.8997 16.7388 56.8001 16.5705 56.6308 16.2271C56.3276 15.6057 56.1064 15.1463 55.7439 14.847C56.17 14.6353 56.409 14.2047 56.409 13.6281C56.409 12.766 55.9075 12.2362 55.0987 12.2362L54.0975 12.2365ZM61.5619 17.2134H60.9948V13.3389L59.7521 15.2654H59.6586L58.4277 13.3389L58.416 17.2134H57.8485V12.2365H58.381L59.705 14.2798L61.0355 12.2365H61.5619V17.2134ZM64.1248 13.3002L64.7673 15.1049H63.5288L64.1248 13.3002ZM64.3349 12.2042H63.9316L62.2215 17.2134H62.8048L63.3073 15.7475H65.0009L65.532 17.2134H66.1156L64.3349 12.2042ZM70.0141 13.3443C69.5237 12.9862 69.1027 12.8249 68.6416 12.8249C67.7305 12.8249 67.053 13.6362 67.053 14.7322C67.053 15.8498 67.7069 16.625 68.6648 16.625C69.1145 16.625 69.6055 16.4278 70.0548 16.0622V16.8425C69.6634 17.0963 69.2377 17.2777 68.6126 17.2777C67.1176 17.2777 66.4643 15.8431 66.4643 14.7979C66.4643 13.2783 67.3805 12.1719 68.6473 12.1719C69.0562 12.1719 69.4706 12.2954 70.0141 12.5782V13.3443ZM73.2539 12.8788H71.566V14.3771H73.196V15.0194H71.566V16.5708H73.3068V17.2131H70.9996V12.2362H73.2539V12.8788ZM77.4802 15.2597C77.4802 16.4793 76.9013 17.2781 75.7179 17.2781C74.8785 17.2781 74.0671 16.6903 74.0671 15.3327V12.2368H74.6342V15.1789C74.6342 15.7417 74.6924 15.9757 74.8732 16.2019C75.1003 16.4867 75.3857 16.6254 75.7301 16.6254C76.1673 16.6254 76.4819 16.45 76.663 16.2238C76.8663 15.9679 76.9131 15.6031 76.9131 15.1358V12.2372H77.4806L77.4802 15.2597ZM81.4056 12.8788H80.027V17.2134H79.4602V12.8788H78.0813V12.2365H81.4053L81.4056 12.8788ZM82.1996 12.2365V17.2134H82.7667V12.2365H82.1996ZM92.2963 15.2597C92.2963 16.4793 91.7174 17.2781 90.534 17.2781C89.6946 17.2781 88.8825 16.6903 88.8825 15.3327V12.2368H89.4499V15.1789C89.4499 15.7417 89.5085 15.9757 89.6889 16.2019C89.9168 16.4867 90.2018 16.6254 90.5461 16.6254C90.9833 16.6254 91.298 16.45 91.4788 16.2238C91.6827 15.9679 91.7295 15.6031 91.7295 15.1358V12.2372H92.297V15.2597H92.2963ZM95.5866 12.8788H93.8987V14.3771H95.5287V15.0194H93.8987V16.5708H95.6394V17.2131H93.3316V12.2362H95.5866V12.8788ZM85.9126 12.8249C86.7947 12.8249 87.4433 13.6587 87.4433 14.7474C87.4433 15.7633 86.8126 16.6257 85.9244 16.6257C84.8612 16.6257 84.3294 15.7414 84.3294 14.7329C84.329 13.9802 84.7208 12.8249 85.9126 12.8249ZM86.374 17.2202C87.338 16.9855 88.032 15.9461 88.032 14.7403C88.032 13.2787 87.1276 12.1722 85.9358 12.1722C84.6444 12.1722 83.7407 13.2201 83.7407 14.7251C83.7407 15.9683 84.423 16.9855 85.4098 17.2202C85.9651 17.7264 86.5962 18.157 87.3669 18.23L87.8802 17.5955C87.4723 17.712 87.0748 17.5955 86.3737 17.2272V17.2202H86.374ZM94.6758 1.0826H96.1042L93.0411 4.98403V9.34562H91.8645V4.97225L88.8007 1.0826H90.2298L92.44 3.93007L94.6758 1.0826ZM1.74861 8.27718H5.47745V9.3436H0.571289V1.0826H1.74861V8.27718Z" fill="white"/>
</svg>
