<svg width="97" height="31" viewBox="0 0 97 31" fill="none" xmlns="http://www.w3.org/2000/svg">
<path d="M0.571289 21.5154V1.39814H4.10008V21.5154H0.571289ZM13.1331 6.92113C8.60868 6.92113 5.4777 10.4048 5.4777 14.3921C5.4777 18.8423 8.8838 21.9079 13.1682 21.9079C17.2343 21.9079 20.7627 18.8986 20.7627 14.3825C20.7627 10.5848 17.8389 6.92113 13.133 6.92113H13.1331ZM13.0915 10.3301C15.4592 10.3301 17.202 12.1758 17.202 14.4049C17.202 16.7684 15.2805 18.4925 13.1553 18.4925C10.6443 18.4925 9.06406 16.4994 9.06406 14.4113C9.06406 12.1225 10.8482 10.3301 13.0915 10.3301ZM29.6288 6.92113C25.1044 6.92113 21.9735 10.4048 21.9735 14.3921C21.9735 18.8423 25.3796 21.9079 29.664 21.9079C33.7301 21.9079 37.2585 18.8986 37.2585 14.3825C37.2585 11.7231 36.1085 10.5431 36.1085 10.5431L37.0866 10.2071V7.33915H32.0747C32.0747 7.33915 30.9882 6.92113 29.6288 6.92113ZM29.5873 10.3301C31.9551 10.3301 33.6978 12.1758 33.6978 14.4049C33.6978 16.7684 31.7763 18.4925 29.6512 18.4925C27.1402 18.4925 25.5598 16.4994 25.5598 14.4113C25.5598 12.1225 27.344 10.3301 29.5873 10.3301ZM33.6728 22.4988C33.6728 24.8623 31.7514 26.5992 29.6262 26.5992C27.1152 26.5992 25.5285 24.5869 25.5285 22.4988H21.9486C21.9486 26.9489 25.3547 30.0145 29.639 30.0145C33.7052 30.0145 37.2336 27.0149 37.2336 22.4988H33.6728ZM38.6719 21.5154V7.33915H42.2007V21.5153L38.6719 21.5154ZM45.6273 21.5154V10.5144H43.735V7.33915H45.6273V2.98584H49.156V7.33915H51.0994V10.5144H49.1561V21.5154H45.6273ZM42.7658 3.31278C42.7658 4.60514 41.7196 5.65281 40.429 5.65281C39.1384 5.65281 38.0922 4.60514 38.0922 3.31278C38.0922 2.02043 39.1384 0.972656 40.429 0.972656C41.7196 0.972656 42.7658 2.02033 42.7658 3.31278ZM59.0329 6.91146C54.487 6.91146 51.5565 10.3969 51.5565 14.5201C51.5565 18.781 54.4967 21.9175 59.1064 21.9175C63.4062 21.9175 65.5214 19.2287 65.5214 19.2287L63.1625 16.8633C63.1625 16.8633 61.3815 18.787 59.1511 18.787C57.2918 18.787 55.8053 17.7478 55.2867 15.8422H66.2821V14.8691C66.2821 10.9863 64.0381 6.91155 59.0328 6.91155L59.0329 6.91146ZM58.921 10.0229C60.5465 10.0229 62.209 10.8938 62.5807 12.9741H55.1908C55.4834 11.5117 56.761 10.0228 58.9209 10.0228L58.921 10.0229ZM75.1087 21.9193C70.5501 21.9193 67.4439 18.4424 67.4439 14.3428C67.4439 10.1118 70.9544 6.90887 75.0942 6.90887C79.0959 6.90887 81.1444 9.73798 81.1444 9.73798L78.6827 12.192C78.6827 12.192 77.2568 10.3469 75.0774 10.3469C72.6618 10.3469 71.0102 12.1974 71.0102 14.397C71.0102 16.7196 72.7672 18.5015 75.0503 18.5015C77.2648 18.5015 78.6794 16.6594 78.6794 16.6594L81.1657 19.112C81.1657 19.112 79.137 21.9193 75.1087 21.9193ZM82.4494 21.5257V1.34691H85.9781V8.76069C85.9781 8.76069 87.3293 6.90887 90.2685 6.90887C93.9636 6.90887 96.1042 9.65954 96.1042 13.1777V21.5257H92.5754V13.7118C92.5754 11.3483 91.106 10.3676 89.4782 10.3676C87.6236 10.3676 85.9782 11.4246 85.9782 13.8947V21.5257H82.4494Z" fill="white"/>
</svg>
