<svg width="96" height="18" viewBox="0 0 96 18" fill="none" xmlns="http://www.w3.org/2000/svg">
<path d="M74.3985 6.74324H70.4983V12.3629H69.1614V6.74324H65.2529V5.73584H74.3985V6.74324Z" fill="white"/>
<path d="M79.9397 5.63135C76.8722 5.63135 74.4424 7.07253 74.4424 9.0432C74.4424 11.0139 76.9271 12.454 79.9499 12.454C82.9727 12.454 85.4456 11.0282 85.4456 9.0432C85.4456 7.05823 83.0045 5.63135 79.9397 5.63135ZM79.9483 11.3869C77.6279 11.3869 75.8136 10.3719 75.8136 9.04302C75.8136 7.71112 77.6279 6.70001 79.9415 6.70001C82.2499 6.70001 84.0746 7.68499 84.0746 9.04302C84.0746 10.4011 82.2698 11.3871 79.9483 11.3871V11.3869Z" fill="white"/>
<path d="M86.7363 5.71094V12.3629H88.073V9.70858H91.7309L94.3611 12.3629H95.9498L93.3166 9.68157C94.4993 9.68298 95.7548 8.7688 95.7548 7.71126C95.7548 6.65372 94.6527 5.71094 92.9074 5.71094H86.7363ZM88.0719 6.74076H93.0998C93.6587 6.74076 94.3941 7.10145 94.3941 7.72574C94.3941 8.47944 93.6389 8.71831 92.9819 8.71831H88.073L88.0719 6.74094V6.74076Z" fill="white"/>
<path d="M10.2051 12.3629H8.94592V7.23458L5.2368 11.5338L1.67861 7.24553V12.3629H0.416992V5.73584H1.8809L5.24757 9.73596L8.6483 5.73584H10.2051V12.3629Z" fill="white"/>
<path d="M45.7908 6.74324H39.1064V8.49763H43.2568V9.48278H39.1064V12.3629H37.7715V5.73584H45.7929L45.7908 6.74324Z" fill="white"/>
<path d="M59.8103 5.63379C56.7564 5.63379 54.3486 7.08151 54.3486 9.04317C54.3486 11.0075 56.7732 12.4573 59.8103 12.4573C61.8389 12.4573 63.5803 11.8087 64.5457 10.826L63.5051 10.1198C62.847 10.8917 61.4412 11.3881 59.8103 11.3881C57.5051 11.3881 55.7013 10.392 55.7013 9.04264C55.7013 7.69644 57.5273 6.69963 59.8103 6.69963C61.229 6.69963 62.4599 7.10199 63.1787 7.66113L64.214 6.95845C63.2218 6.14402 61.6322 5.63379 59.8103 5.63379Z" fill="white"/>
<path d="M20.1688 12.3629H21.6646L16.983 5.73584H15.8983L11.2178 12.3629H12.7112L14.2005 10.2543H18.6805L20.1688 12.3629ZM14.8874 9.27534L16.4408 7.07145L17.9926 9.27534H14.8874Z" fill="white"/>
<path d="M52.8088 12.3629H54.3011L49.6204 5.73584H48.5339L43.8535 12.3629H45.3487L46.8369 10.2543H51.3189L52.8088 12.3629ZM47.525 9.27534L49.0763 7.07145L50.6285 9.27534H47.525Z" fill="white"/>
<path d="M33.9718 13.2452C33.8877 13.1688 33.8007 13.0893 33.7195 13.0095C33.7195 13.0095 33.2782 12.5848 33.0664 12.3295C33.0049 12.2516 32.0302 11.0855 32.0302 11.0855L31.3491 10.2734C31.049 9.91425 30.7823 9.58304 30.5329 9.26119C30.3237 8.98966 30.0513 8.78309 30.1295 8.46848C30.2031 8.15704 31.3341 6.7125 31.8739 6.05573C31.8739 6.05573 32.3133 5.52908 32.9416 4.7782V4.78509C34.1082 3.39599 35.9395 1.23641 36.8923 0.253906C36.8923 0.253906 35.8959 0.313227 34.8413 1.42956C34.3221 1.98128 29.6091 6.78259 29.445 6.92577C29.2 7.14116 28.9966 7.07178 28.8169 6.89947C28.6767 6.76458 28.2111 6.15477 27.9519 5.75559C27.6121 5.23053 27.2449 4.71006 26.9775 4.14562C26.963 4.11172 26.9472 4.08718 26.9362 4.06423L26.9353 4.06088L26.9339 4.05735L26.9143 4.02204C26.8382 3.86685 26.8038 3.80329 26.7793 3.69224C26.7562 3.59337 26.7336 3.44277 26.6877 3.14016L26.6734 3.03247L26.6698 3.02929V3.02399C26.6144 2.33774 26.4435 1.82804 26.1634 1.50654C25.9171 1.21752 25.6338 1.16067 25.538 1.15061C25.5345 1.15027 25.531 1.15027 25.5275 1.15061C25.4881 1.14597 25.4483 1.14473 25.4086 1.1469C25.0379 1.1981 24.7268 1.42479 24.4811 1.82556C24.4361 1.90927 24.3974 1.99627 24.3655 2.0858C24.3002 2.26428 24.2543 2.44924 24.2285 2.63752C24.1743 3.07572 24.2562 3.45195 24.4714 3.75686C24.5969 3.91222 24.816 4.11172 25.0292 4.30628C25.1778 4.44311 25.3173 4.56864 25.4243 4.67792C25.9035 5.17227 26.275 5.74994 26.66 6.31208C26.9502 6.7388 27.2815 7.14187 27.5696 7.57301C27.6338 7.677 27.6949 7.7711 27.7445 7.85761C27.7523 7.86759 27.7587 7.87858 27.7636 7.89027C27.9754 8.23984 28.0488 8.47289 27.7687 8.88178C27.6497 9.05833 27.124 9.71281 26.8455 10.0686C26.4225 10.6107 26.004 11.1541 25.5899 11.6987C24.8132 12.7165 24.0562 13.7512 23.3875 14.8344C23.0306 15.4096 22.5205 16.0817 22.5554 16.7925C22.614 18.0107 24.0153 18.0744 24.796 17.4703C25.1212 17.2199 25.2998 16.9717 25.0802 16.8052C24.6668 16.4927 24.7459 16.013 25.3902 14.8063C25.6245 14.358 27.3217 12.0685 28.6794 10.2633C28.6794 10.2633 28.8305 10.0615 28.8271 10.0668C28.8873 9.98646 28.9888 9.87682 29.1449 9.87682C29.2949 9.87524 29.4065 10.0668 29.5055 10.1946C30.2446 11.1718 30.5405 11.5828 31.1873 12.5994C31.3742 12.892 31.6335 13.4001 31.8 13.7375C31.7979 13.7366 31.7959 13.7355 31.794 13.7343L31.797 13.7366C31.9942 14.086 32.1599 14.4524 32.2921 14.8312C32.4227 15.1908 32.5666 15.596 32.9333 15.8836C33.0979 16.0083 33.294 16.0848 33.4995 16.1043C33.5045 16.1043 33.507 16.1043 33.5101 16.1043C34.1774 16.1612 34.7541 15.6453 34.821 14.9325C34.8266 14.8824 34.8289 14.8319 34.8279 14.7814C34.818 14.3753 34.6582 13.9869 34.3405 13.6035C34.2641 13.5166 34.1225 13.3849 33.9718 13.2452Z" fill="white"/>
</svg>
