<svg width="97" height="14" viewBox="0 0 97 14" fill="none" xmlns="http://www.w3.org/2000/svg">
<path fill-rule="evenodd" clip-rule="evenodd" d="M5.17134 13.1842V12.8532C4.50905 12.7817 4.08217 12.6474 3.8917 12.4503C3.59911 12.1459 3.45307 11.4927 3.45307 10.4897V3.34637L11.5624 13.0172L11.8754 13.3997V3.74931C11.8754 2.78867 11.9918 2.17378 12.2247 1.90514C12.4575 1.63651 12.9227 1.46644 13.6208 1.39494V1.0543H9.31562V1.39494C9.98966 1.4547 10.4257 1.58288 10.6223 1.77951C10.9205 2.08389 11.0702 2.74066 11.0702 3.7488V9.49837L4.00812 1.05481H0.866211V1.39545C1.24204 1.4072 1.52441 1.45061 1.71233 1.52517C1.90024 1.59974 2.12849 1.79534 2.39708 2.11147L2.6478 2.40666V10.4902C2.6478 11.4569 2.54057 12.0734 2.32559 12.3389C2.11062 12.605 1.6245 12.7761 0.866722 12.8537V13.1847L5.17134 13.1842ZM25.0293 13.1842V12.8532C24.367 12.7817 23.9401 12.6474 23.7496 12.4503C23.457 12.1459 23.311 11.4927 23.311 10.4897V3.34637L31.4198 13.0172L31.7328 13.3997V3.74931C31.7328 2.78867 31.8493 2.17378 32.0821 1.90514C32.315 1.63651 32.7801 1.46644 33.4782 1.39494V1.0543H29.1736V1.39494C29.8476 1.4547 30.2832 1.58288 30.4803 1.77951C30.7785 2.08389 30.9281 2.74066 30.9281 3.7488V9.49837L23.8661 1.0543H20.7247V1.39494C21.1005 1.40669 21.3829 1.4501 21.5703 1.52466C21.7587 1.59923 21.9864 1.79483 22.255 2.11096L22.5057 2.40615V10.4897C22.5057 11.4564 22.3985 12.0729 22.1835 12.3384C21.9685 12.6045 21.4824 12.7756 20.7247 12.8532V13.1842H25.0293ZM19.6585 13.1842V12.8532C18.9124 12.7996 18.4294 12.6878 18.2088 12.5177C17.9877 12.3476 17.8774 11.9074 17.8774 11.1975V3.04198C17.8774 2.36785 17.9877 1.93374 18.2088 1.73967C18.4294 1.54611 18.9124 1.43069 19.6585 1.39494V1.0543H14.2345V1.39494C14.9801 1.43069 15.4636 1.5456 15.6847 1.73967C15.9053 1.93374 16.0156 2.36785 16.0156 3.04198V11.197C16.0156 11.9074 15.9053 12.3471 15.6847 12.5172C15.4636 12.6872 14.9801 12.7991 14.2345 12.8527V13.1837L19.6585 13.1842ZM38.466 3.42706L40.5872 8.47593H36.3719L38.466 3.42706ZM36.3091 12.8532C35.8792 12.8175 35.5866 12.7639 35.4319 12.6924C35.1811 12.5734 35.056 12.3583 35.056 12.0478C35.056 11.8931 35.102 11.6827 35.1944 11.4171C35.2868 11.1515 35.5718 10.4187 36.0492 9.21953H40.8466L41.6069 10.983C41.7147 11.2338 41.7979 11.4723 41.8576 11.699C41.9174 11.9258 41.947 12.0836 41.947 12.1735C41.947 12.4421 41.8694 12.6106 41.7141 12.6796C41.5589 12.748 41.2127 12.8068 40.676 12.8537V13.1847H45.3391V12.8537C44.9097 12.794 44.6038 12.6827 44.4215 12.5182C44.2397 12.3543 43.9962 11.9258 43.6923 11.2338L39.1278 0.84082H38.7698L34.9478 9.83749C34.3748 11.1863 33.9704 12.0126 33.735 12.317C33.4991 12.6214 33.1458 12.8006 32.6739 12.8542V13.1852H36.3081V12.8532H36.3091ZM68.1679 13.1842V12.8532C67.4219 12.7996 66.9383 12.6878 66.7177 12.5177C66.4961 12.3476 66.3868 11.9074 66.3868 11.1975V3.04198C66.3868 2.36785 66.4966 1.93374 66.7177 1.73967C66.9383 1.54611 67.4219 1.43069 68.1679 1.39494V1.0543H62.7435V1.39494C63.4895 1.43069 63.9731 1.5456 64.1936 1.73967C64.4142 1.93374 64.5245 2.36785 64.5245 3.04198V11.197C64.5245 11.9074 64.4137 12.3471 64.1936 12.5172C63.9736 12.6872 63.4895 12.7991 62.7435 12.8527V13.1837L68.1679 13.1842ZM96.3991 13.1842V12.8532C95.6531 12.7996 95.1696 12.6878 94.949 12.5177C94.7273 12.3476 94.6181 11.9074 94.6181 11.1975V3.04198C94.6181 2.36785 94.7279 1.93374 94.949 1.73967C95.1696 1.54611 95.6531 1.43069 96.3991 1.39494V1.0543H90.9747V1.39494C91.7207 1.43069 92.2043 1.5456 92.4249 1.73967C92.6455 1.93374 92.7558 2.36785 92.7558 3.04198V11.197C92.7558 11.9074 92.645 12.3471 92.4249 12.5172C92.2048 12.6872 91.7207 12.7991 90.9747 12.8527V13.1837L96.3991 13.1842ZM54.2542 10.8793C54.2833 11.4667 54.3288 11.9717 54.4508 12.2113C54.8047 12.8062 55.4481 12.8706 56.0424 12.9508C56.1073 12.9993 56.0593 13.1116 56.0751 13.1923H50.8473V12.9309C50.9571 12.9028 51.5933 12.9068 51.7976 12.6775C52.6013 12.2598 52.3199 11.246 52.4328 10.4743V2.36938C52.2725 1.66204 51.5162 1.42099 50.8892 1.32447V1.05072C53.2687 1.13142 55.8178 0.857677 58.0528 1.32447C58.9536 1.61404 59.8701 2.45007 60.0463 3.4148C60.3037 4.54091 60.0305 5.65017 59.1619 6.42237C58.6804 6.8243 58.1166 7.01735 57.5861 7.30692V7.3871C59.3554 8.27165 59.6603 10.2981 60.512 11.8257C60.9629 12.5335 61.735 12.7102 62.5229 12.5652C62.458 12.9033 61.9591 13.1122 61.6385 13.2889C60.9144 13.6106 59.8701 13.5621 59.2431 13.0642C58.0043 11.7935 57.7469 10.1209 57.0402 8.62557C56.5735 7.61232 55.4328 7.67667 54.4998 7.54797C54.3063 7.5638 54.2547 7.57198 54.2547 7.70629L54.2542 10.8793ZM56.1548 1.82292C55.7948 1.76674 54.3058 1.58595 54.3058 2.17633V6.7717L54.4186 6.80796C55.7529 6.90397 57.1204 6.64708 57.7306 5.42495C58.1325 4.65276 58.0206 3.51081 57.5861 2.78765C57.2332 2.32137 56.7185 1.95162 56.1548 1.82292Z" fill="white"/>
<path fill-rule="evenodd" clip-rule="evenodd" d="M77.7681 1.59994C78.0735 1.69647 78.3145 1.40689 78.3793 1.16584C78.3477 0.892609 78.556 0.82826 78.8134 0.859924H78.9262C78.8946 2.0984 78.9262 3.6101 79.1994 4.88074C79.0866 5.00944 78.8772 4.92875 78.7327 4.94509C78.3799 3.75463 77.7365 2.3558 76.418 1.90535C75.0031 1.31037 73.3302 1.71281 72.285 2.7899C70.5488 4.67135 70.3231 7.59874 71.3204 9.89795C71.7871 10.927 72.7517 11.9561 73.8286 12.3259C75.3722 12.712 77.0931 12.4066 78.2348 11.2483C78.4253 11.1037 78.7976 10.6012 79.1984 10.1477L79.6723 10.4005L79.4251 10.7825C78.3482 12.5516 76.5467 13.5327 74.4883 13.4361C72.5913 13.3069 70.8383 12.5838 69.6644 10.927C68.4915 9.28663 68.298 6.64933 69.0859 4.75153C69.8416 2.67703 72.045 0.940619 74.2468 0.827752C75.5489 0.795577 76.6907 1.10149 77.7681 1.59994ZM89.1445 1.59994C89.4498 1.69647 89.6909 1.40689 89.7547 1.16584C89.723 0.892609 89.9324 0.82826 90.1897 0.859924H90.3016C90.2699 2.0984 90.3016 3.6101 90.5748 4.88074C90.4629 5.00944 90.2536 4.92875 90.1091 4.94509C89.7552 3.75463 89.1118 2.3558 87.7933 1.90535C86.3789 1.31037 84.7066 1.71281 83.6613 2.7899C81.9252 4.67135 81.6995 7.59874 82.6967 9.89795C83.1624 10.927 84.127 11.9561 85.205 12.3259C86.7476 12.712 88.4684 12.4066 89.6102 11.2483C89.8017 11.1037 90.1729 10.6012 90.5737 10.1477L91.0476 10.4005L90.8005 10.7825C89.7235 12.5516 87.922 13.5327 85.8647 13.4361C83.9667 13.3069 82.2147 12.5838 81.0408 10.927C79.8668 9.28663 79.6743 6.64933 80.4612 4.75153C81.2169 2.67703 83.4203 0.940619 85.6232 0.827752C86.9253 0.795577 88.0665 1.10149 89.1445 1.59994Z" fill="white"/>
</svg>
