<svg width="97" height="30" viewBox="0 0 97 30" fill="none" xmlns="http://www.w3.org/2000/svg">
<path d="M15.1906 0.716309C7.27855 0.716309 0.864258 7.13314 0.864258 15.0485C0.864258 22.9643 7.27855 29.3806 15.1906 29.3806C23.1035 29.3806 29.5171 22.9643 29.5171 15.0485C29.5171 7.13366 23.1035 0.716993 15.1904 0.716993L15.1906 0.716309ZM21.7606 21.3875C21.6994 21.4877 21.6191 21.5749 21.5243 21.644C21.4294 21.7132 21.3219 21.7629 21.2078 21.7904C21.0937 21.8179 20.9753 21.8226 20.8594 21.8043C20.7435 21.786 20.6323 21.745 20.5322 21.6836C17.1686 19.6281 12.9341 19.1626 7.94728 20.3024C7.71637 20.355 7.47405 20.3136 7.27359 20.1875C7.07313 20.0614 6.93093 19.8608 6.87823 19.6298C6.85199 19.5155 6.84855 19.397 6.86811 19.2813C6.88768 19.1657 6.92986 19.055 6.99225 18.9556C7.05464 18.8562 7.136 18.7702 7.23169 18.7023C7.32737 18.6344 7.4355 18.5861 7.54987 18.5601C13.0072 17.3128 17.6883 17.8499 21.4646 20.1587C21.8854 20.4171 22.0189 20.9665 21.7606 21.3875ZM23.5141 17.485C23.1907 18.0108 22.503 18.1768 21.9778 17.8533C18.1269 15.4853 12.2568 14.7995 7.70196 16.1827C7.11124 16.3612 6.48732 16.0282 6.30804 15.4382C6.22249 15.1546 6.25286 14.8486 6.39249 14.5874C6.53212 14.3261 6.76962 14.1309 7.0529 14.0446C12.2558 12.4652 18.724 13.2303 23.1463 15.9489C23.6715 16.2724 23.8374 16.9603 23.5141 17.485ZM23.6646 13.4213C19.0473 10.6776 11.4293 10.4253 7.02091 11.7639C6.313 11.9787 5.56437 11.5789 5.34985 10.8707C5.24669 10.5304 5.28283 10.1631 5.45033 9.8495C5.61782 9.53591 5.90296 9.3017 6.24303 9.19838C11.3036 7.66147 19.7162 7.95842 25.0322 11.1156C25.1837 11.2052 25.316 11.3239 25.4216 11.4648C25.5272 11.6057 25.604 11.7661 25.6475 11.9367C25.6911 12.1074 25.7005 12.2849 25.6754 12.4592C25.6502 12.6335 25.591 12.8012 25.5009 12.9525C25.1246 13.5895 24.3 13.7995 23.6653 13.4213H23.6646ZM39.8415 13.947C37.3677 13.3569 36.9281 12.9427 36.9281 12.0725C36.9281 11.2503 37.7013 10.6969 38.8527 10.6969C39.9681 10.6969 41.0732 11.1171 42.2331 11.9821C42.2673 12.0083 42.3118 12.0187 42.3546 12.0119C42.3761 12.0088 42.3968 12.0013 42.4153 11.99C42.4338 11.9786 42.4498 11.9636 42.4624 11.9458L43.6701 10.2425C43.694 10.2088 43.7041 10.1672 43.6984 10.1262C43.6926 10.0853 43.6715 10.048 43.6394 10.0221C42.2588 8.91427 40.7054 8.37567 38.8886 8.37567C36.2181 8.37567 34.3517 9.97915 34.3517 12.2734C34.3517 14.7336 35.9615 15.6048 38.7432 16.2772C41.1091 16.8227 41.5095 17.2796 41.5095 18.0963C41.5095 19.0017 40.702 19.5648 39.4018 19.5648C37.958 19.5648 36.7792 19.077 35.462 17.9372C35.4291 17.9094 35.3869 17.8953 35.3439 17.8978C35.2994 17.9012 35.2601 17.9218 35.2327 17.9543L33.8778 19.5665C33.8214 19.635 33.8282 19.7342 33.8932 19.7924C35.426 21.1616 37.3113 21.8838 39.3471 21.8838C42.2246 21.8838 44.0841 20.311 44.0841 17.8756C44.0893 15.8206 42.8592 14.6825 39.8466 13.9493L39.8415 13.947ZM50.5953 11.5065C49.3481 11.5065 48.3251 11.998 47.48 13.0052V11.8715C47.4802 11.8287 47.4633 11.7875 47.4332 11.757C47.403 11.7266 47.362 11.7093 47.3192 11.7091H45.1038C45.0148 11.7091 44.9429 11.782 44.9429 11.8715V24.4682C44.9429 24.5572 45.0148 24.6308 45.1038 24.6308H47.3192C47.4081 24.6308 47.48 24.5572 47.48 24.4682V20.4924C48.3251 21.4389 49.3481 21.9027 50.5953 21.9027C52.9133 21.9027 55.2605 20.1176 55.2605 16.7051C55.2639 13.2919 52.9168 11.5063 50.597 11.5063L50.5953 11.5065ZM52.6841 16.7051C52.6841 18.4421 51.6149 19.6555 50.082 19.6555C48.568 19.6555 47.4252 18.3873 47.4252 16.7051C47.4252 15.0227 48.568 13.7548 50.082 13.7548C51.5892 13.7547 52.6841 14.9953 52.6841 16.7051ZM61.2738 11.5065C58.2885 11.5065 55.9499 13.806 55.9499 16.7422C55.9499 19.6469 58.2731 21.9215 61.2378 21.9215C64.2334 21.9215 66.5788 19.6298 66.5788 16.7051C66.5788 13.7903 64.2488 11.5068 61.2738 11.5068V11.5065ZM61.2738 19.6726C59.6862 19.6726 58.4887 18.3958 58.4887 16.7042C58.4887 15.0049 59.6451 13.7718 61.2378 13.7718C62.8357 13.7718 64.0401 15.048 64.0401 16.7414C64.0401 18.4403 62.8767 19.6726 61.2738 19.6726ZM72.9531 11.7091H70.5153V9.21618C70.5153 9.19496 70.5112 9.17393 70.5032 9.1543C70.4952 9.13466 70.4834 9.1168 70.4684 9.10174C70.4535 9.08667 70.4357 9.07469 70.4162 9.06649C70.3966 9.05829 70.3756 9.05402 70.3544 9.05393H68.139C68.0501 9.05393 67.9765 9.12684 67.9765 9.21618V11.7091H66.9124C66.8234 11.7091 66.7516 11.782 66.7516 11.8715V13.7759C66.7516 13.8652 66.8234 13.9383 66.9124 13.9383H67.9765V18.8665C67.9765 20.8569 68.967 21.8667 70.9224 21.8667C71.7162 21.8667 72.3748 21.7024 72.9958 21.3499C73.0472 21.3225 73.0779 21.2677 73.0779 21.2095V19.3953C73.0779 19.3406 73.0489 19.2875 73.001 19.2584C72.9777 19.2435 72.9508 19.235 72.9232 19.2338C72.8956 19.2326 72.8681 19.2388 72.8436 19.2516C72.4176 19.4655 72.0053 19.5648 71.5434 19.5648C70.8334 19.5648 70.5153 19.2413 70.5153 18.5191V13.9392H72.9531C73.042 13.9392 73.1139 13.8663 73.1139 13.7767V11.8726C73.1146 11.8513 73.111 11.8301 73.1033 11.8103C73.0956 11.7905 73.084 11.7725 73.0691 11.7573C73.0542 11.7421 73.0364 11.7301 73.0168 11.722C72.9971 11.7139 72.976 11.7099 72.9548 11.7101L72.9531 11.7091ZM81.4452 11.7189V11.4127C81.4452 10.5119 81.7908 10.1103 82.5641 10.1103C83.026 10.1103 83.3972 10.202 83.8129 10.3406C83.8642 10.3567 83.9173 10.3487 83.9583 10.318C83.9792 10.303 83.9961 10.2832 84.0077 10.2602C84.0193 10.2373 84.0253 10.2119 84.025 10.1862V8.31902C84.0254 8.28415 84.0145 8.2501 83.9938 8.22202C83.9731 8.19395 83.9438 8.17339 83.9104 8.16345C83.4725 8.03286 82.9113 7.89886 82.0697 7.89886C80.0253 7.89886 78.9424 9.05136 78.9424 11.2306V11.6995H77.8783C77.7894 11.6995 77.7158 11.7724 77.7158 11.8618V13.7759C77.7158 13.8652 77.7894 13.9383 77.8783 13.9383H78.9424V21.5381C78.9424 21.6288 79.016 21.7007 79.1049 21.7007H81.3186C81.4093 21.7007 81.4812 21.6288 81.4812 21.5381V13.9388H83.5495L86.7178 21.5381C86.3585 22.3357 86.0044 22.4948 85.5219 22.4948C85.1319 22.4948 84.7196 22.3784 84.3005 22.1474C84.2607 22.1273 84.2149 22.1231 84.1722 22.1354C84.1294 22.1508 84.0935 22.1816 84.0764 22.2227L83.3253 23.8709C83.2894 23.9496 83.3202 24.0403 83.3955 24.0814C84.179 24.5058 84.8856 24.6872 85.7597 24.6872C87.3952 24.6872 88.3002 23.9239 89.0957 21.8736L92.9381 11.9407C92.9481 11.9161 92.9517 11.8894 92.9487 11.8631C92.9457 11.8368 92.9362 11.8116 92.9209 11.7899C92.9065 11.7682 92.8869 11.7504 92.8639 11.7381C92.841 11.7258 92.8153 11.7194 92.7892 11.7194H90.4831C90.413 11.7194 90.3514 11.7634 90.3292 11.8282L87.9666 18.5773L85.38 11.8238C85.3684 11.7932 85.3478 11.7668 85.3209 11.7482C85.294 11.7295 85.2621 11.7195 85.2294 11.7194H81.4452V11.7189ZM76.5217 11.7091H74.3063C74.2173 11.7091 74.1438 11.782 74.1438 11.8715V21.5381C74.1438 21.6288 74.2173 21.7007 74.3063 21.7007H76.5217C76.6106 21.7007 76.6842 21.6288 76.6842 21.5381V11.8722C76.6843 11.8509 76.6801 11.8297 76.6719 11.81C76.6638 11.7902 76.6518 11.7723 76.6367 11.7572C76.6216 11.7421 76.6037 11.7302 76.5839 11.722C76.5642 11.7139 76.543 11.7097 76.5217 11.7098V11.7091ZM75.4268 7.30737C74.5492 7.30737 73.8375 8.01797 73.8375 8.89579C73.8375 9.77412 74.5492 10.4856 75.4268 10.4856C76.3044 10.4856 77.0144 9.77412 77.0144 8.89579C77.0144 8.01815 76.3027 7.30737 75.4268 7.30737ZM94.8301 14.8173C93.9542 14.8173 93.2716 14.1131 93.2716 13.2578C93.2716 12.4026 93.9628 11.6903 94.8387 11.6903C95.7146 11.6903 96.3972 12.3944 96.3972 13.2489C96.3972 14.1042 95.7061 14.8173 94.8301 14.8173ZM94.8387 11.8453C94.0398 11.8453 93.4359 12.4803 93.4359 13.2578C93.4359 14.035 94.0364 14.6614 94.8301 14.6614C95.6291 14.6614 96.233 14.027 96.233 13.2489C96.233 12.4717 95.6325 11.8453 94.8387 11.8453ZM95.1843 13.4093L95.6256 14.0268H95.2527L94.8558 13.4603H94.5154V14.0268H94.204V12.3899H94.9328C95.3143 12.3899 95.5641 12.5845 95.5641 12.9121C95.5658 13.1805 95.4101 13.3444 95.186 13.4093H95.1843ZM94.9208 12.6708H94.5154V13.1885H94.9208C95.1227 13.1885 95.2441 13.0894 95.2441 12.9294C95.2441 12.761 95.1227 12.6708 94.9208 12.6708Z" fill="white"/>
</svg>
