<svg width="96" height="17" viewBox="0 0 96 17" fill="none" xmlns="http://www.w3.org/2000/svg">
<path d="M53.7978 1.16856C51.6142 1.16856 49.4239 1.44381 48.043 2.80304C46.6621 4.16227 46.1248 6.20112 46.1248 8.70891C46.1248 11.2167 46.6145 13.2182 47.975 14.5774C49.3355 15.9366 51.6006 16.2764 53.7842 16.2764C55.9677 16.2764 58.1581 15.9842 59.539 14.625C60.9198 13.2657 61.4674 11.2269 61.4674 8.70891C61.4674 6.19093 60.981 4.20985 59.6002 2.85401C58.2193 1.49817 55.9847 1.16856 53.7978 1.16856ZM57.1139 12.3211C56.3419 13.1978 54.9474 13.3405 53.7978 13.3405C52.6482 13.3405 51.2571 13.1876 50.4851 12.3211C49.713 11.4546 49.6756 10.2346 49.6756 8.71231C49.6756 7.18997 49.7266 6.01083 50.4953 5.13073C51.2639 4.25062 52.5019 4.1113 53.808 4.1113C55.114 4.1113 56.3521 4.26421 57.1207 5.13073C57.8894 5.99724 57.9404 7.18657 57.9404 8.71231C57.9404 10.238 57.8826 11.441 57.1139 12.3211ZM23.5206 1.43701H20.4255C20.3944 1.43656 20.3635 1.44229 20.3347 1.45387C20.3058 1.46545 20.2795 1.48265 20.2574 1.50447C20.2352 1.52629 20.2176 1.55229 20.2056 1.58096C20.1936 1.60963 20.1874 1.6404 20.1875 1.67148V15.7701C20.1874 15.8012 20.1936 15.832 20.2056 15.8606C20.2176 15.8893 20.2352 15.9153 20.2574 15.9371C20.2795 15.959 20.3058 15.9762 20.3347 15.9877C20.3635 15.9993 20.3944 16.005 20.4255 16.0046H23.5206C23.5832 16.0046 23.6432 15.98 23.6878 15.9361C23.7323 15.8923 23.7578 15.8326 23.7587 15.7701V1.67148C23.7578 1.60898 23.7323 1.54935 23.6878 1.50547C23.6432 1.4616 23.5832 1.437 23.5206 1.43701ZM10.5179 8.60017L16.004 1.804C16.0313 1.77095 16.0486 1.73078 16.0537 1.68824C16.0589 1.6457 16.0517 1.60257 16.0331 1.56396C16.0145 1.52535 15.9852 1.49287 15.9487 1.47037C15.9122 1.44788 15.87 1.4363 15.8272 1.43701H11.8784C11.8317 1.43713 11.7857 1.44791 11.7439 1.46853C11.702 1.48914 11.6654 1.51904 11.6369 1.55594L8.00447 6.36763L4.46386 1.55934C4.43569 1.52181 4.39926 1.49126 4.35739 1.47005C4.31552 1.44884 4.26932 1.43753 4.22237 1.43701H0.24981C0.206925 1.4363 0.164733 1.44788 0.128229 1.47037C0.0917246 1.49287 0.0624358 1.52535 0.0438289 1.56396C0.0252221 1.60257 0.0180762 1.6457 0.023237 1.68824C0.0283977 1.73078 0.0456492 1.77095 0.0729495 1.804L5.63386 8.7259L0.0661472 15.641C0.0398818 15.6741 0.0235075 15.7139 0.0189096 15.7559C0.0143116 15.7979 0.021677 15.8404 0.0401576 15.8784C0.0586381 15.9163 0.0874826 15.9484 0.12337 15.9707C0.159257 15.993 0.200728 16.0048 0.243008 16.0046H4.21557C4.26338 16.0042 4.31043 15.9926 4.35296 15.9708C4.39549 15.949 4.4323 15.9175 4.46045 15.8789L8.18133 11.0876L11.6811 15.8823C11.7098 15.9201 11.7468 15.9507 11.7893 15.972C11.8318 15.9932 11.8785 16.0043 11.926 16.0046H15.8476C15.8898 16.0048 15.9313 15.993 15.9672 15.9707C16.0031 15.9484 16.0319 15.9163 16.0504 15.8784C16.0689 15.8404 16.0763 15.7979 16.0717 15.7559C16.0671 15.7139 16.0507 15.6741 16.0244 15.641L10.5179 8.60017ZM85.8402 2.50741C84.5817 1.33846 82.5581 1.19574 80.9221 1.19574C78.8066 1.19574 77.4597 1.64429 76.6434 2.06565H76.0754C75.2762 1.6239 73.8681 1.19574 71.6539 1.19574C70.0145 1.19574 68.0079 1.31468 66.7698 2.35449C65.7495 3.21081 65.508 4.35596 65.508 6.70064V15.7633C65.5085 15.7946 65.515 15.8254 65.5274 15.8541C65.5398 15.8828 65.5577 15.9088 65.5801 15.9305C65.6026 15.9523 65.6291 15.9695 65.6581 15.981C65.6872 15.9925 65.7182 15.9983 65.7495 15.9978H68.8411C68.8724 15.9983 68.9035 15.9925 68.9325 15.981C68.9616 15.9695 68.9881 15.9523 69.0105 15.9305C69.0329 15.9088 69.0508 15.8828 69.0632 15.8541C69.0756 15.8254 69.0822 15.7946 69.0826 15.7633V15.7327V8.30454C69.0826 6.9453 69.0316 5.55889 69.3207 5.03558C69.5486 4.62781 69.9023 4.17586 71.5825 4.17586C73.5858 4.17586 74.0585 4.31519 74.3748 5.19529C74.458 5.47789 74.5015 5.77065 74.5041 6.0652V15.7633C74.5041 15.7944 74.5103 15.8252 74.5223 15.8539C74.5343 15.8825 74.5519 15.9085 74.574 15.9303C74.5962 15.9522 74.6225 15.9694 74.6513 15.9809C74.6802 15.9925 74.7111 15.9983 74.7422 15.9978H77.8338C77.8651 15.9983 77.8961 15.9925 77.9252 15.981C77.9543 15.9695 77.9808 15.9523 78.0032 15.9305C78.0256 15.9088 78.0435 15.8828 78.0559 15.8541C78.0683 15.8254 78.0749 15.7946 78.0753 15.7633V6.072C78.0779 5.77745 78.1214 5.48469 78.2046 5.20209C78.5209 4.31519 78.9902 4.18266 80.9935 4.18266C82.6737 4.18266 83.0342 4.63461 83.2553 5.04238C83.5478 5.56568 83.4934 6.96569 83.4934 8.31133V15.7871C83.4938 15.8184 83.5004 15.8492 83.5128 15.8779C83.5252 15.9066 83.5431 15.9326 83.5655 15.9543C83.5879 15.9761 83.6144 15.9932 83.6435 16.0048C83.6725 16.0163 83.7036 16.022 83.7349 16.0216H86.8265C86.8891 16.0216 86.9491 15.997 86.9937 15.9531C87.0382 15.9092 87.0637 15.8496 87.0646 15.7871V7.29191C87.0646 4.8181 86.9864 3.57101 85.8402 2.50741ZM41.4515 3.37052C40.0231 1.40303 37.4314 0.808363 34.7581 0.951083C33.0242 1.01879 31.3077 1.3229 29.6563 1.85497C29.357 1.96711 29.3944 2.22536 29.391 2.38168C29.391 2.90158 29.34 4.24722 29.3434 4.79432C29.3434 5.03558 29.6393 5.13412 29.8876 5.05937C31.2745 4.55634 32.7147 4.21428 34.1799 4.03994C35.7682 3.91081 37.9211 4.03994 38.5197 4.94043C38.802 5.36859 38.8156 6.02442 38.8599 6.69385C37.56 6.55316 36.2516 6.50773 34.9451 6.55792C33.8057 6.60889 31.6494 6.70744 30.3535 7.38705C29.3128 7.94094 28.7006 8.44386 28.3741 9.38173C28.1233 10.1551 28.0387 10.9725 28.1258 11.7808C28.3162 13.4798 28.9012 14.3056 29.6937 14.89C30.9419 15.8143 32.5201 16.3002 35.7784 16.2289C40.1149 16.1337 41.2543 14.7337 41.8291 13.7381C42.8086 12.039 42.6386 9.37154 42.6079 7.73026C42.5977 7.04725 42.4957 4.81131 41.4515 3.37052ZM38.6252 12.2633C38.217 13.123 36.7579 13.2555 35.9042 13.2827C34.3057 13.3541 33.1289 13.2827 32.367 12.9157C32.1008 12.7743 31.8759 12.5662 31.7143 12.3119C31.5528 12.0575 31.4601 11.7656 31.4453 11.4648C31.4181 10.9109 31.4283 10.6288 31.6766 10.2992C32.2412 9.56862 33.7173 9.41231 35.2172 9.35455C36.461 9.33971 37.7043 9.41124 38.9381 9.56862C38.9279 10.6696 38.8565 11.7774 38.6252 12.2633ZM95.309 1.43701H92.2174C92.1861 1.43656 92.1551 1.44227 92.126 1.45381C92.0969 1.46535 92.0704 1.4825 92.048 1.50427C92.0256 1.52604 92.0077 1.55201 91.9953 1.5807C91.9829 1.60939 91.9763 1.64024 91.9759 1.67148V15.7701C91.9763 15.8014 91.9829 15.8322 91.9953 15.8609C92.0077 15.8896 92.0256 15.9156 92.048 15.9373C92.0704 15.9591 92.0969 15.9763 92.126 15.9878C92.1551 15.9993 92.1861 16.005 92.2174 16.0046H95.309C95.3403 16.005 95.3714 15.9993 95.4004 15.9878C95.4295 15.9763 95.456 15.9591 95.4784 15.9373C95.5008 15.9156 95.5187 15.8896 95.5311 15.8609C95.5435 15.8322 95.5501 15.8014 95.5505 15.7701V1.67148C95.5501 1.64024 95.5435 1.60939 95.5311 1.5807C95.5187 1.55201 95.5008 1.52604 95.4784 1.50427C95.456 1.4825 95.4295 1.46535 95.4004 1.45381C95.3714 1.44227 95.3403 1.43656 95.309 1.43701Z" fill="white"/>
</svg>
