<svg width="167" height="27" viewBox="0 0 167 27" fill="none" xmlns="http://www.w3.org/2000/svg">
<path d="M93.6961 0.807176C89.9092 0.807176 86.1105 1.28453 83.7156 3.64183C81.3208 5.99913 80.3888 9.53508 80.3888 13.8843C80.3888 18.2335 81.2382 21.7046 83.5977 24.0619C85.9571 26.4192 89.8856 27.0086 93.6725 27.0086C97.4594 27.0086 101.258 26.5017 103.653 24.1444C106.048 21.7871 106.997 18.2512 106.997 13.8843C106.997 9.5174 106.154 6.08164 103.759 3.73023C101.364 1.37882 97.4889 0.807176 93.6961 0.807176ZM99.4472 20.1488C98.1082 21.6693 95.6898 21.9168 93.6961 21.9168C91.7023 21.9168 89.2898 21.6516 87.9508 20.1488C86.6119 18.646 86.547 16.5304 86.547 13.8902C86.547 11.25 86.6354 9.20506 87.9685 7.67871C89.3016 6.15235 91.4487 5.91073 93.7138 5.91073C95.9788 5.91073 98.1259 6.17593 99.459 7.67871C100.792 9.18149 100.881 11.2441 100.881 13.8902C100.881 16.5363 100.78 18.6225 99.4472 20.1488ZM41.1867 1.27274H35.819C35.7651 1.27196 35.7115 1.2819 35.6615 1.30199C35.6114 1.32207 35.5658 1.3519 35.5274 1.38974C35.489 1.42758 35.4585 1.47267 35.4377 1.52239C35.4168 1.57212 35.4061 1.62548 35.4061 1.67938V26.1305C35.4061 26.1844 35.4168 26.2377 35.4377 26.2875C35.4585 26.3372 35.489 26.3823 35.5274 26.4201C35.5658 26.4579 35.6114 26.4878 35.6615 26.5079C35.7115 26.5279 35.7651 26.5379 35.819 26.5371H41.1867C41.2952 26.5371 41.3994 26.4945 41.4766 26.4184C41.5539 26.3423 41.5981 26.2389 41.5996 26.1305V1.67938C41.5981 1.57099 41.5539 1.46757 41.4766 1.39148C41.3994 1.31538 41.2952 1.27273 41.1867 1.27274ZM18.6364 13.6957L28.1508 1.90921C28.1982 1.85189 28.2281 1.78222 28.2371 1.70844C28.246 1.63467 28.2336 1.55987 28.2013 1.49291C28.1691 1.42595 28.1183 1.36963 28.055 1.33061C27.9917 1.29159 27.9185 1.27151 27.8441 1.27274H20.9958C20.9149 1.27296 20.8351 1.29165 20.7625 1.3274C20.6899 1.36315 20.6265 1.41501 20.577 1.47901L14.2773 9.82385L8.1369 1.4849C8.08805 1.41982 8.02488 1.36683 7.95225 1.33005C7.87963 1.29326 7.79952 1.27365 7.7181 1.27274H0.828538C0.754163 1.27151 0.680991 1.29159 0.617682 1.33061C0.554373 1.36963 0.503577 1.42595 0.471308 1.49291C0.439038 1.55987 0.426645 1.63467 0.435595 1.70844C0.444546 1.78222 0.474465 1.85189 0.521811 1.90921L10.166 13.9138L0.510014 25.9065C0.464462 25.9639 0.436065 26.033 0.42809 26.1059C0.420116 26.1787 0.43289 26.2523 0.46494 26.3182C0.496991 26.3841 0.547016 26.4396 0.609254 26.4783C0.671493 26.517 0.743416 26.5374 0.816741 26.5371H7.7063C7.78922 26.5364 7.87082 26.5163 7.94458 26.4785C8.01833 26.4406 8.08217 26.386 8.131 26.3191L14.5841 18.0096L20.6537 26.325C20.7035 26.3905 20.7677 26.4437 20.8413 26.4805C20.915 26.5173 20.9961 26.5367 21.0784 26.5371H27.8795C27.9528 26.5374 28.0248 26.517 28.087 26.4783C28.1492 26.4396 28.1993 26.3841 28.2313 26.3182C28.2634 26.2523 28.2761 26.1787 28.2682 26.1059C28.2602 26.033 28.2318 25.9639 28.1862 25.9065L18.6364 13.6957ZM149.267 3.12912C147.084 1.10184 143.575 0.854322 140.737 0.854322C137.068 0.854322 134.733 1.63223 133.317 2.36299H132.332C130.946 1.59687 128.504 0.854322 124.664 0.854322C121.821 0.854322 118.34 1.06059 116.193 2.86392C114.424 4.34902 114.005 6.33504 114.005 10.4014V26.1187C114.006 26.1729 114.017 26.2264 114.039 26.2761C114.06 26.3259 114.091 26.3709 114.13 26.4087C114.169 26.4464 114.215 26.4762 114.265 26.4962C114.316 26.5162 114.37 26.5261 114.424 26.5253H119.786C119.84 26.5261 119.894 26.5162 119.944 26.4962C119.994 26.4762 120.04 26.4464 120.079 26.4087C120.118 26.3709 120.149 26.3259 120.171 26.2761C120.192 26.2264 120.204 26.1729 120.204 26.1187V26.0656V13.183C120.204 10.8257 120.116 8.42126 120.617 7.5137C121.012 6.80651 121.626 6.0227 124.54 6.0227C128.014 6.0227 128.834 6.26433 129.383 7.79068C129.527 8.28079 129.602 8.78852 129.607 9.29935V26.1187C129.607 26.1726 129.617 26.226 129.638 26.2757C129.659 26.3254 129.69 26.3705 129.728 26.4083C129.766 26.4462 129.812 26.476 129.862 26.4961C129.912 26.5162 129.966 26.5261 130.02 26.5253H135.381C135.436 26.5261 135.49 26.5162 135.54 26.4962C135.59 26.4762 135.636 26.4464 135.675 26.4087C135.714 26.3709 135.745 26.3259 135.767 26.2761C135.788 26.2264 135.799 26.1729 135.8 26.1187V9.31114C135.805 8.80031 135.88 8.29258 136.024 7.80246C136.573 6.26433 137.387 6.03449 140.861 6.03449C143.775 6.03449 144.4 6.81829 144.784 7.52548C145.291 8.43304 145.197 10.8611 145.197 13.1948V26.1599C145.197 26.2141 145.209 26.2676 145.23 26.3174C145.252 26.3671 145.283 26.4122 145.322 26.4499C145.361 26.4877 145.407 26.5174 145.457 26.5374C145.507 26.5575 145.561 26.5674 145.616 26.5666H150.977C151.086 26.5666 151.19 26.5239 151.267 26.4478C151.345 26.3717 151.389 26.2683 151.39 26.1599V11.4268C151.39 7.13653 151.255 4.9737 149.267 3.12912ZM72.2841 4.626C69.8067 1.21381 65.312 0.182492 60.6757 0.430008C57.6687 0.547438 54.6919 1.07485 51.8278 1.99761C51.3087 2.19209 51.3736 2.63998 51.3677 2.91107C51.3677 3.81273 51.2792 6.14646 51.2851 7.09527C51.2851 7.5137 51.7983 7.6846 52.2289 7.55495C54.6342 6.68255 57.132 6.08933 59.673 5.78697C62.4276 5.56303 66.1614 5.78697 67.1996 7.34868C67.6891 8.09123 67.7127 9.22863 67.7894 10.3896C65.5351 10.1456 63.266 10.0668 61.0001 10.1539C59.0241 10.2423 55.2844 10.4132 53.037 11.5918C51.2321 12.5524 50.1703 13.4246 49.604 15.0512C49.1691 16.3923 49.0224 17.8101 49.1734 19.2118C49.5038 22.1584 50.5183 23.5905 51.8927 24.6041C54.0575 26.2071 56.7944 27.0498 62.4453 26.9261C69.966 26.7611 71.942 24.333 72.9389 22.6063C74.6377 19.6597 74.3428 15.0335 74.2897 12.187C74.272 11.0025 74.095 7.12474 72.2841 4.626ZM67.3824 20.0486C66.6746 21.5396 64.1441 21.7695 62.6635 21.8166C59.8912 21.9404 57.8503 21.8166 56.529 21.1801C56.0673 20.9349 55.6773 20.574 55.397 20.1329C55.1168 19.6918 54.9561 19.1855 54.9305 18.6637C54.8833 17.7031 54.901 17.214 55.3316 16.6423C56.3107 15.3753 58.8707 15.1042 61.472 15.004C63.6291 14.9783 65.7853 15.1023 67.9251 15.3753C67.9074 17.2847 67.7835 19.2059 67.3824 20.0486ZM165.688 1.27274H160.327C160.272 1.27196 160.219 1.28186 160.168 1.30188C160.118 1.32189 160.072 1.35163 160.033 1.38939C159.994 1.42715 159.963 1.4722 159.941 1.52195C159.92 1.57171 159.909 1.6252 159.908 1.67938V26.1305C159.909 26.1846 159.92 26.2381 159.941 26.2879C159.963 26.3377 159.994 26.3827 160.033 26.4205C160.072 26.4582 160.118 26.488 160.168 26.508C160.219 26.528 160.272 26.5379 160.327 26.5371H165.688C165.743 26.5379 165.797 26.528 165.847 26.508C165.897 26.488 165.943 26.4582 165.982 26.4205C166.021 26.3827 166.052 26.3377 166.074 26.2879C166.095 26.2381 166.106 26.1846 166.107 26.1305V1.67938C166.106 1.6252 166.095 1.57171 166.074 1.52195C166.052 1.4722 166.021 1.42715 165.982 1.38939C165.943 1.35163 165.897 1.32189 165.847 1.30188C165.797 1.28186 165.743 1.27196 165.688 1.27274Z" fill="white"/>
</svg>
