<svg width="26" height="17" viewBox="0 0 26 17" fill="none" xmlns="http://www.w3.org/2000/svg">
<path d="M13 5.1C12.0597 5.1 11.1579 5.45821 10.493 6.09584C9.82808 6.73346 9.45455 7.59826 9.45455 8.5C9.45455 9.40174 9.82808 10.2665 10.493 10.9042C11.1579 11.5418 12.0597 11.9 13 11.9C13.9403 11.9 14.8421 11.5418 15.507 10.9042C16.1719 10.2665 16.5455 9.40174 16.5455 8.5C16.5455 7.59826 16.1719 6.73346 15.507 6.09584C14.8421 5.45821 13.9403 5.1 13 5.1ZM13 14.1667C11.4328 14.1667 9.92981 13.5696 8.82164 12.5069C7.71347 11.4442 7.09091 10.0029 7.09091 8.5C7.09091 6.99711 7.71347 5.55577 8.82164 4.49306C9.92981 3.43036 11.4328 2.83333 13 2.83333C14.5672 2.83333 16.0702 3.43036 17.1784 4.49306C18.2865 5.55577 18.9091 6.99711 18.9091 8.5C18.9091 10.0029 18.2865 11.4442 17.1784 12.5069C16.0702 13.5696 14.5672 14.1667 13 14.1667ZM13 0C7.09091 0 2.04455 3.52467 0 8.5C2.04455 13.4753 7.09091 17 13 17C18.9091 17 23.9555 13.4753 26 8.5C23.9555 3.52467 18.9091 0 13 0Z" fill="black"/>
</svg>
