<svg width="26" height="21" viewBox="0 0 26 21" fill="none" xmlns="http://www.w3.org/2000/svg">
<path d="M18.2 18.2V21H0V18.2C0 18.2 0 12.6 9.1 12.6C18.2 12.6 18.2 18.2 18.2 18.2ZM13.65 4.90004C13.65 3.93091 13.3831 2.98355 12.8832 2.17775C12.3832 1.37195 11.6726 0.74391 10.8412 0.373041C10.0098 0.00217265 9.09495 -0.0948635 8.21234 0.0942036C7.32972 0.283271 6.51899 0.749949 5.88266 1.43523C5.24634 2.1205 4.81299 2.99359 4.63743 3.9441C4.46186 4.8946 4.55197 5.87983 4.89635 6.77518C5.24073 7.67054 5.82391 8.43581 6.57216 8.97423C7.3204 9.51265 8.20009 9.80003 9.1 9.80003C10.3067 9.80003 11.464 9.28378 12.3173 8.36485C13.1706 7.44593 13.65 6.1996 13.65 4.90004ZM18.122 12.6C18.9212 13.2661 19.5751 14.1126 20.0378 15.0801C20.5005 16.0476 20.7606 17.1126 20.8 18.2V21H26V18.2C26 18.2 26 13.118 18.122 12.6ZM16.9 5.1515e-05C16.0053 -0.00443007 15.1304 0.283594 14.391 0.82605C15.1807 2.01428 15.6053 3.43884 15.6053 4.90004C15.6053 6.36124 15.1807 7.7858 14.391 8.97403C15.1304 9.51648 16.0053 9.80451 16.9 9.80003C18.1067 9.80003 19.264 9.28378 20.1173 8.36485C20.9706 7.44593 21.45 6.1996 21.45 4.90004C21.45 3.60048 20.9706 2.35415 20.1173 1.43523C19.264 0.516299 18.1067 5.1515e-05 16.9 5.1515e-05Z" fill="black"/>
</svg>
