<svg width="167" height="50" viewBox="0 0 167 50" fill="none" xmlns="http://www.w3.org/2000/svg">
<path d="M25.7454 0.266113C12.0236 0.266113 0.899414 11.3947 0.899414 25.1223C0.899414 38.8505 12.0236 49.9782 25.7454 49.9782C39.4686 49.9782 50.5917 38.8505 50.5917 25.1223C50.5917 11.3956 39.4686 0.267301 25.7451 0.267301L25.7454 0.266113ZM37.1396 36.1159C37.0336 36.2897 36.8943 36.4409 36.7298 36.5608C36.5653 36.6807 36.3788 36.767 36.1809 36.8146C35.9831 36.8623 35.7777 36.8705 35.5767 36.8387C35.3757 36.807 35.1829 36.7358 35.0093 36.6294C29.1758 33.0646 21.832 32.2572 13.1834 34.2341C12.7829 34.3252 12.3627 34.2535 12.015 34.0347C11.6674 33.816 11.4208 33.4681 11.3294 33.0676C11.2838 32.8692 11.2779 32.6638 11.3118 32.4632C11.3457 32.2626 11.4189 32.0706 11.5271 31.8983C11.6353 31.7259 11.7764 31.5767 11.9424 31.459C12.1083 31.3413 12.2958 31.2575 12.4942 31.2124C21.9587 29.0492 30.0771 29.9806 36.6263 33.9847C37.3562 34.4329 37.5876 35.3857 37.1396 36.1159ZM40.1807 29.3478C39.6199 30.2597 38.4272 30.5476 37.5164 29.9866C30.8378 25.8798 20.6574 24.6904 12.7579 27.0893C11.7335 27.3989 10.6514 26.8213 10.3405 25.7982C10.1921 25.3063 10.2448 24.7756 10.487 24.3225C10.7291 23.8694 11.141 23.5309 11.6323 23.3812C20.6556 20.6421 31.8733 21.9689 39.5428 26.6839C40.4537 27.2449 40.7414 28.4378 40.1807 29.3478ZM40.4418 22.3002C32.434 17.5419 19.2223 17.1043 11.5768 19.4258C10.3491 19.7983 9.05076 19.1049 8.67871 17.8767C8.49981 17.2866 8.56249 16.6496 8.85298 16.1057C9.14346 15.5618 9.63796 15.1556 10.2277 14.9765C19.0042 12.311 33.5941 12.826 42.8136 18.3014C43.0763 18.4569 43.3058 18.6628 43.4889 18.9071C43.6721 19.1515 43.8052 19.4296 43.8807 19.7256C43.9562 20.0215 43.9726 20.3294 43.929 20.6317C43.8854 20.934 43.7826 21.2247 43.6265 21.4872C42.9738 22.5919 41.5437 22.9561 40.443 22.3002H40.4418ZM68.4971 23.212C64.2069 22.1886 63.4444 21.4703 63.4444 19.9609C63.4444 18.535 64.7855 17.5754 66.7822 17.5754C68.7166 17.5754 70.6333 18.3041 72.6449 19.8042C72.7042 19.8496 72.7813 19.8677 72.8555 19.8559C72.8928 19.8505 72.9287 19.8376 72.9608 19.8179C72.9929 19.7982 73.0207 19.7721 73.0424 19.7413L75.1371 16.7873C75.1785 16.7288 75.1959 16.6566 75.186 16.5856C75.1761 16.5146 75.1395 16.45 75.0837 16.405C72.6894 14.4837 69.9954 13.5496 66.8445 13.5496C62.2131 13.5496 58.9762 16.3305 58.9762 20.3094C58.9762 24.5762 61.7681 26.087 66.5923 27.2532C70.6956 28.1991 71.3899 28.9916 71.3899 30.4081C71.3899 31.9782 69.9895 32.9548 67.7346 32.9548C65.2305 32.9548 63.1863 32.1088 60.9018 30.132C60.8448 30.0838 60.7715 30.0594 60.697 30.0638C60.6199 30.0697 60.5517 30.1053 60.5042 30.1617L58.1544 32.9577C58.0565 33.0765 58.0683 33.2486 58.1811 33.3495C60.8394 35.7241 64.109 36.9767 67.6396 36.9767C72.63 36.9767 75.8551 34.2489 75.8551 30.0252C75.864 26.4613 73.7308 24.4874 68.506 23.2158L68.4971 23.212ZM87.1472 18.9794C84.9843 18.9794 83.2101 19.8318 81.7444 21.5786V19.6125C81.7448 19.5381 81.7156 19.4667 81.6633 19.4139C81.611 19.3611 81.5399 19.3312 81.4656 19.3308H77.6234C77.4691 19.3308 77.3445 19.4572 77.3445 19.6125V41.4586C77.3445 41.613 77.4691 41.7406 77.6234 41.7406H81.4656C81.6198 41.7406 81.7444 41.613 81.7444 41.4586V34.5635C83.2101 36.2049 84.9843 37.0093 87.1472 37.0093C91.1674 37.0093 95.2381 33.9135 95.2381 27.9952C95.244 22.0758 91.1734 18.9791 87.1502 18.9791L87.1472 18.9794ZM90.7699 27.9952C90.7699 31.0076 88.9155 33.1121 86.2572 33.1121C83.6314 33.1121 81.6495 30.9127 81.6495 27.9952C81.6495 25.0775 83.6314 22.8787 86.2572 22.8787C88.871 22.8784 90.7699 25.03 90.7699 27.9952ZM105.667 18.9794C100.49 18.9794 96.4337 22.9674 96.4337 28.0596C96.4337 33.0972 100.463 37.042 105.605 37.042C110.8 37.042 114.867 33.0676 114.867 27.9952C114.867 22.9401 110.826 18.9799 105.667 18.9799V18.9794ZM105.667 33.1418C102.914 33.1418 100.837 30.9275 100.837 27.9937C100.837 25.0466 102.842 22.908 105.605 22.908C108.376 22.908 110.464 25.1214 110.464 28.0581C110.464 31.0047 108.447 33.1418 105.667 33.1418ZM125.922 19.3308H121.694V15.0073C121.694 14.9705 121.687 14.9341 121.673 14.9C121.659 14.8659 121.639 14.835 121.613 14.8088C121.587 14.7827 121.556 14.7619 121.522 14.7477C121.488 14.7335 121.452 14.7261 121.415 14.7259H117.573C117.419 14.7259 117.291 14.8524 117.291 15.0073V19.3308H115.446C115.292 19.3308 115.167 19.4572 115.167 19.6125V22.9152C115.167 23.0701 115.292 23.1968 115.446 23.1968H117.291V31.7437C117.291 35.1958 119.009 36.947 122.4 36.947C123.777 36.947 124.919 36.662 125.996 36.0506C126.085 36.0031 126.139 35.9081 126.139 35.8072V32.6609C126.139 32.5659 126.088 32.4739 126.005 32.4235C125.965 32.3976 125.918 32.3829 125.87 32.3808C125.822 32.3787 125.775 32.3893 125.732 32.4116C124.993 32.7826 124.278 32.9548 123.477 32.9548C122.246 32.9548 121.694 32.3938 121.694 31.1412V23.1983H125.922C126.076 23.1983 126.201 23.0719 126.201 22.9167V19.6142C126.202 19.5774 126.196 19.5407 126.183 19.5063C126.169 19.4719 126.149 19.4406 126.123 19.4143C126.097 19.388 126.067 19.3671 126.033 19.3531C125.998 19.339 125.962 19.3321 125.925 19.3326L125.922 19.3308ZM140.65 19.3477V18.8167C140.65 17.2545 141.249 16.5579 142.59 16.5579C143.391 16.5579 144.035 16.717 144.756 16.9574C144.845 16.9853 144.937 16.9714 145.008 16.9182C145.044 16.8922 145.074 16.8578 145.094 16.818C145.114 16.7783 145.124 16.7343 145.124 16.6897V13.4514C145.125 13.3909 145.106 13.3319 145.07 13.2832C145.034 13.2345 144.983 13.1988 144.925 13.1816C144.166 12.9551 143.193 12.7227 141.733 12.7227C138.187 12.7227 136.309 14.7215 136.309 18.5009V19.3142H134.464C134.31 19.3142 134.182 19.4406 134.182 19.5955V22.9152C134.182 23.0701 134.31 23.1968 134.464 23.1968H136.309V36.3771C136.309 36.5344 136.437 36.6591 136.591 36.6591H140.43C140.588 36.6591 140.712 36.5344 140.712 36.3771V23.1977H144.299L149.794 36.3771C149.171 37.7603 148.557 38.0363 147.72 38.0363C147.044 38.0363 146.329 37.8345 145.602 37.4338C145.533 37.399 145.453 37.3916 145.379 37.413C145.305 37.4397 145.243 37.4931 145.213 37.5644L143.911 40.4227C143.848 40.5593 143.902 40.7166 144.032 40.7878C145.391 41.5239 146.616 41.8386 148.133 41.8386C150.969 41.8386 152.538 40.5147 153.918 36.9589L160.582 19.7324C160.599 19.6898 160.605 19.6435 160.6 19.5978C160.595 19.5522 160.579 19.5085 160.552 19.4709C160.527 19.4332 160.493 19.4024 160.453 19.381C160.413 19.3597 160.369 19.3486 160.324 19.3486H156.324C156.203 19.3486 156.096 19.4249 156.057 19.5374L151.96 31.2421L147.474 19.5297C147.454 19.4766 147.418 19.4308 147.371 19.3985C147.325 19.3662 147.269 19.3488 147.213 19.3486H140.65V19.3477ZM132.111 19.3308H128.269C128.115 19.3308 127.987 19.4572 127.987 19.6125V36.3771C127.987 36.5344 128.115 36.6591 128.269 36.6591H132.111C132.265 36.6591 132.393 36.5344 132.393 36.3771V19.6137C132.393 19.5766 132.386 19.5399 132.372 19.5057C132.357 19.4715 132.337 19.4404 132.311 19.4142C132.284 19.388 132.253 19.3673 132.219 19.3532C132.185 19.3391 132.148 19.3319 132.111 19.332V19.3308ZM130.212 11.6969C128.69 11.6969 127.456 12.9293 127.456 14.4517C127.456 15.975 128.69 17.2088 130.212 17.2088C131.734 17.2088 132.966 15.975 132.966 14.4517C132.966 12.9296 131.731 11.6969 130.212 11.6969ZM163.863 24.7213C162.344 24.7213 161.16 23.4999 161.16 22.0167C161.16 20.5335 162.359 19.2981 163.878 19.2981C165.397 19.2981 166.581 20.5192 166.581 22.0013C166.581 23.4845 165.382 24.7213 163.863 24.7213ZM163.878 19.5671C162.492 19.5671 161.445 20.6682 161.445 22.0167C161.445 23.3646 162.487 24.4509 163.863 24.4509C165.249 24.4509 166.296 23.3506 166.296 22.0013C166.296 20.6534 165.255 19.5671 163.878 19.5671ZM164.477 22.2794L165.243 23.3503H164.596L163.908 22.3678H163.317V23.3503H162.777V20.5115H164.041C164.703 20.5115 165.136 20.849 165.136 21.4171C165.139 21.8825 164.869 22.1669 164.48 22.2794H164.477ZM164.02 20.9986H163.317V21.8965H164.02C164.371 21.8965 164.581 21.7246 164.581 21.4471C164.581 21.155 164.371 20.9986 164.02 20.9986Z" fill="white"/>
</svg>
