<svg width="167" height="52" viewBox="0 0 167 52" fill="none" xmlns="http://www.w3.org/2000/svg">
<path d="M0.662109 36.4449V1.55579H6.78204V36.4449H0.662109ZM22.4478 11.1342C14.6012 11.1342 9.17124 17.1759 9.17124 24.091C9.17124 31.809 15.0784 37.1257 22.5087 37.1257C29.5605 37.1257 35.6798 31.9066 35.6798 24.0744C35.6798 17.4881 30.6092 11.1342 22.4476 11.1342H22.4478ZM22.3757 17.0463C26.482 17.0463 29.5044 20.2473 29.5044 24.1133C29.5044 28.2122 26.1721 31.2023 22.4865 31.2023C18.1316 31.2023 15.391 27.7457 15.391 24.1244C15.391 20.155 18.4852 17.0463 22.3757 17.0463ZM51.0561 11.1342C43.2096 11.1342 37.7797 17.1759 37.7797 24.091C37.7797 31.809 43.6869 37.1257 51.1172 37.1257C58.169 37.1257 64.2883 31.9066 64.2883 24.0744C64.2883 19.4622 62.2938 17.4157 62.2938 17.4157L63.9901 16.8331V11.8592H55.298C55.298 11.8592 53.4137 11.1342 51.0561 11.1342ZM50.9842 17.0463C55.0905 17.0463 58.1129 20.2473 58.1129 24.1133C58.1129 28.2122 54.7806 31.2023 51.095 31.2023C46.7401 31.2023 43.9993 27.7457 43.9993 24.1244C43.9993 20.155 47.0937 17.0463 50.9842 17.0463ZM58.0697 38.1504C58.0697 42.2494 54.7373 45.2617 51.0517 45.2617C46.6968 45.2617 43.9451 41.7717 43.9451 38.1504H37.7364C37.7364 45.8682 43.6436 51.1847 51.0739 51.1847C58.1257 51.1847 64.245 45.9826 64.245 38.1504H58.0697ZM66.7395 36.4449V11.8592H72.8594V36.4447L66.7395 36.4449ZM78.8021 36.4449V17.3661H75.5203V11.8592H78.8021V4.30931H84.9218V11.8592H88.2924V17.3661H84.922V36.4449H78.8021ZM73.8394 4.87632C73.8394 7.11763 72.025 8.9346 69.7868 8.9346C67.5485 8.9346 65.7341 7.11763 65.7341 4.87632C65.7341 2.635 67.5485 0.817871 69.7868 0.817871C72.025 0.817871 73.8394 2.63484 73.8394 4.87632ZM102.051 11.1175C94.1673 11.1175 89.0851 17.1623 89.0851 24.3131C89.0851 31.7027 94.1842 37.1423 102.179 37.1423C109.636 37.1423 113.304 32.4791 113.304 32.4791L109.213 28.3768C109.213 28.3768 106.124 31.713 102.256 31.713C99.0318 31.713 96.4537 29.9108 95.5543 26.6059H114.623V24.9183C114.623 18.1844 110.732 11.1176 102.051 11.1176L102.051 11.1175ZM101.857 16.5135C104.676 16.5135 107.559 18.0239 108.204 21.6318H95.388C95.8955 19.0957 98.1112 16.5134 101.857 16.5134L101.857 16.5135ZM129.931 37.1454C122.025 37.1454 116.638 31.1154 116.638 24.0055C116.638 16.6678 122.727 11.113 129.906 11.113C136.846 11.113 140.399 16.0194 140.399 16.0194L136.13 20.2754C136.13 20.2754 133.657 17.0756 129.877 17.0756C125.688 17.0756 122.823 20.2848 122.823 24.0995C122.823 28.1275 125.871 31.2179 129.83 31.2179C133.671 31.2179 136.124 28.0232 136.124 28.0232L140.436 32.2767C140.436 32.2767 136.918 37.1454 129.931 37.1454ZM142.662 36.4627V1.46693H148.782V14.3245C148.782 14.3245 151.125 11.113 156.223 11.113C162.631 11.113 166.344 15.8834 166.344 21.9849V36.4627H160.224V22.9111C160.224 18.8122 157.675 17.1115 154.852 17.1115C151.636 17.1115 148.782 18.9445 148.782 23.2284V36.4627H142.662Z" fill="white"/>
</svg>
